{
	"asset":{
		"generator":"Khronos glTF Blender I/O v5.0.21",
		"version":"2.0"
	},
	"scene":0,
	"scenes":[
		{
			"name":"Scene",
			"nodes":[
				0,
				1
			]
		}
	],
	"nodes":[
		{
			"mesh":0,
			"name":"Balloon_o"
		},
		{
			"mesh":1,
			"name":"Text_o"
		}
	],
	"materials":[
		{
			"doubleSided":true,
			"name":"Material",
			"pbrMetallicRoughness":{
				"baseColorFactor":[
					0.800000011920929,
					0.800000011920929,
					0.800000011920929,
					1
				],
				"metallicFactor":0,
				"roughnessFactor":0.5
			}
		}
	],
	"meshes":[
		{
			"name":"Circle.003",
			"primitives":[
				{
					"attributes":{
						"POSITION":0,
						"NORMAL":1,
						"TEXCOORD_0":2
					},
					"indices":3,
					"material":0
				}
			]
		},
		{
			"name":"Text.002",
			"primitives":[
				{
					"attributes":{
						"POSITION":4,
						"NORMAL":5
					},
					"indices":6
				}
			]
		}
	],
	"accessors":[
		{
			"bufferView":0,
			"componentType":5126,
			"count":5629,
			"max":[
				1.0186848640441895,
				0.6222785711288452,
				0.02770628035068512
			],
			"min":[
				-1.0277317762374878,
				-0.6259203553199768,
				-1.9823209047317505
			],
			"type":"VEC3"
		},
		{
			"bufferView":1,
			"componentType":5126,
			"count":5629,
			"type":"VEC3"
		},
		{
			"bufferView":2,
			"componentType":5126,
			"count":5629,
			"type":"VEC2"
		},
		{
			"bufferView":3,
			"componentType":5123,
			"count":18990,
			"type":"SCALAR"
		},
		{
			"bufferView":4,
			"componentType":5126,
			"count":333,
			"max":[
				0.6341073513031006,
				0.630566418170929,
				-0.7492196559906006
			],
			"min":[
				-0.5772345066070557,
				0.4753701686859131,
				-1.230824589729309
			],
			"type":"VEC3"
		},
		{
			"bufferView":5,
			"componentType":5126,
			"count":333,
			"type":"VEC3"
		},
		{
			"bufferView":6,
			"componentType":5123,
			"count":882,
			"type":"SCALAR"
		}
	],
	"bufferViews":[
		{
			"buffer":0,
			"byteLength":67548,
			"byteOffset":0,
			"target":34962
		},
		{
			"buffer":0,
			"byteLength":67548,
			"byteOffset":67548,
			"target":34962
		},
		{
			"buffer":0,
			"byteLength":45032,
			"byteOffset":135096,
			"target":34962
		},
		{
			"buffer":0,
			"byteLength":37980,
			"byteOffset":180128,
			"target":34963
		},
		{
			"buffer":0,
			"byteLength":3996,
			"byteOffset":218108,
			"target":34962
		},
		{
			"buffer":0,
			"byteLength":3996,
			"byteOffset":222104,
			"target":34962
		},
		{
			"buffer":0,
			"byteLength":1764,
			"byteOffset":226100,
			"target":34963
		}
	],
	"buffers":[
		{
			"byteLength":227864,
			"uri":"round-foil-balloon-text.bin"
		}
	]
}
