{
	"asset":{
		"generator":"Khronos glTF Blender I/O v5.0.21",
		"version":"2.0"
	},
	"scene":0,
	"scenes":[
		{
			"name":"Scene",
			"nodes":[
				0,
				1
			]
		}
	],
	"nodes":[
		{
			"mesh":0,
			"name":"Balloon_o"
		},
		{
			"mesh":1,
			"name":"Portrait_o"
		}
	],
	"materials":[
		{
			"doubleSided":true,
			"name":"Material",
			"pbrMetallicRoughness":{
				"baseColorFactor":[
					0.800000011920929,
					0.800000011920929,
					0.800000011920929,
					1
				],
				"metallicFactor":0,
				"roughnessFactor":0.5
			}
		},
		{
			"alphaMode":"BLEND",
			"doubleSided":true,
			"name":"Portrait",
			"pbrMetallicRoughness":{
				"baseColorTexture":{
					"index":0
				},
				"metallicFactor":0,
				"roughnessFactor":0.5
			}
		}
	],
	"meshes":[
		{
			"name":"Circle.003",
			"primitives":[
				{
					"attributes":{
						"POSITION":0,
						"NORMAL":1,
						"TEXCOORD_0":2
					},
					"indices":3,
					"material":0
				}
			]
		},
		{
			"name":"Portrait.002",
			"primitives":[
				{
					"attributes":{
						"POSITION":4,
						"NORMAL":5,
						"TEXCOORD_0":6
					},
					"indices":7,
					"material":1
				}
			]
		}
	],
	"textures":[
		{
			"sampler":0,
			"source":0
		}
	],
	"images":[
		{
			"mimeType":"image/png",
			"name":"Portrait",
			"uri":"Portrait.png"
		}
	],
	"accessors":[
		{
			"bufferView":0,
			"componentType":5126,
			"count":5629,
			"max":[
				1.0186848640441895,
				0.6222785711288452,
				0.02770628035068512
			],
			"min":[
				-1.0277317762374878,
				-0.6259203553199768,
				-1.9823209047317505
			],
			"type":"VEC3"
		},
		{
			"bufferView":1,
			"componentType":5126,
			"count":5629,
			"type":"VEC3"
		},
		{
			"bufferView":2,
			"componentType":5126,
			"count":5629,
			"type":"VEC2"
		},
		{
			"bufferView":3,
			"componentType":5123,
			"count":18990,
			"type":"SCALAR"
		},
		{
			"bufferView":4,
			"componentType":5126,
			"count":100,
			"max":[
				0.40782126784324646,
				0.6232717633247375,
				-0.4697279632091522
			],
			"min":[
				-0.4043234884738922,
				0.4836927354335785,
				-1.5203144550323486
			],
			"type":"VEC3"
		},
		{
			"bufferView":5,
			"componentType":5126,
			"count":100,
			"type":"VEC3"
		},
		{
			"bufferView":6,
			"componentType":5126,
			"count":100,
			"type":"VEC2"
		},
		{
			"bufferView":7,
			"componentType":5123,
			"count":486,
			"type":"SCALAR"
		}
	],
	"bufferViews":[
		{
			"buffer":0,
			"byteLength":67548,
			"byteOffset":0,
			"target":34962
		},
		{
			"buffer":0,
			"byteLength":67548,
			"byteOffset":67548,
			"target":34962
		},
		{
			"buffer":0,
			"byteLength":45032,
			"byteOffset":135096,
			"target":34962
		},
		{
			"buffer":0,
			"byteLength":37980,
			"byteOffset":180128,
			"target":34963
		},
		{
			"buffer":0,
			"byteLength":1200,
			"byteOffset":218108,
			"target":34962
		},
		{
			"buffer":0,
			"byteLength":1200,
			"byteOffset":219308,
			"target":34962
		},
		{
			"buffer":0,
			"byteLength":800,
			"byteOffset":220508,
			"target":34962
		},
		{
			"buffer":0,
			"byteLength":972,
			"byteOffset":221308,
			"target":34963
		}
	],
	"samplers":[
		{
			"magFilter":9729,
			"minFilter":9987,
			"wrapS":33071,
			"wrapT":33071
		}
	],
	"buffers":[
		{
			"byteLength":222280,
			"uri":"round-foil-balloon-portrait.bin"
		}
	]
}
