{
	"asset":{
		"generator":"Khronos glTF Blender I/O v5.0.21",
		"version":"2.0"
	},
	"scene":0,
	"scenes":[
		{
			"name":"Scene",
			"nodes":[
				0,
				1,
				2
			]
		}
	],
	"nodes":[
		{
			"mesh":0,
			"name":"logo_exp_base"
		},
		{
			"mesh":1,
			"name":"logo_exp_top"
		},
		{
			"mesh":2,
			"name":"logo_exp_letters"
		}
	],
	"materials":[
		{
			"name":"base",
			"pbrMetallicRoughness":{
				"baseColorFactor":[
					0.0003035269910469651,
					0.0012141079641878605,
					0.004024718888103962,
					1
				],
				"metallicFactor":0
			}
		},
		{
			"name":"top",
			"pbrMetallicRoughness":{
				"baseColorFactor":[
					0.0003035269910469651,
					0.0012141079641878605,
					0.004024718888103962,
					1
				],
				"roughnessFactor":0.800000011920929
			}
		},
		{
			"name":"letters",
			"pbrMetallicRoughness":{
				"baseColorFactor":[
					0.07818742841482162,
					0.08437623828649521,
					0.09989875555038452,
					1
				],
				"metallicFactor":0.290909081697464
			}
		}
	],
	"meshes":[
		{
			"name":"logo_exp_base",
			"primitives":[
				{
					"attributes":{
						"POSITION":0,
						"NORMAL":1,
						"TEXCOORD_0":2
					},
					"indices":3,
					"material":0
				}
			]
		},
		{
			"name":"logo_exp_top",
			"primitives":[
				{
					"attributes":{
						"POSITION":4,
						"NORMAL":5,
						"TEXCOORD_0":6
					},
					"indices":7,
					"material":1
				}
			]
		},
		{
			"name":"logo_exp_letters",
			"primitives":[
				{
					"attributes":{
						"POSITION":8,
						"NORMAL":9,
						"TEXCOORD_0":10
					},
					"indices":11,
					"material":2
				}
			]
		}
	],
	"accessors":[
		{
			"bufferView":0,
			"componentType":5126,
			"count":424,
			"max":[
				1,
				0.800000011920929,
				1
			],
			"min":[
				-1,
				-1,
				-1
			],
			"type":"VEC3"
		},
		{
			"bufferView":1,
			"componentType":5126,
			"count":424,
			"type":"VEC3"
		},
		{
			"bufferView":2,
			"componentType":5126,
			"count":424,
			"type":"VEC2"
		},
		{
			"bufferView":3,
			"componentType":5123,
			"count":1716,
			"type":"SCALAR"
		},
		{
			"bufferView":4,
			"componentType":5126,
			"count":1200,
			"max":[
				1,
				1,
				1
			],
			"min":[
				-1,
				0.7999999523162842,
				-1
			],
			"type":"VEC3"
		},
		{
			"bufferView":5,
			"componentType":5126,
			"count":1200,
			"type":"VEC3"
		},
		{
			"bufferView":6,
			"componentType":5126,
			"count":1200,
			"type":"VEC2"
		},
		{
			"bufferView":7,
			"componentType":5123,
			"count":4296,
			"type":"SCALAR"
		},
		{
			"bufferView":8,
			"componentType":5126,
			"count":4853,
			"max":[
				0.8340134620666504,
				1,
				0.36403053998947144
			],
			"min":[
				-0.8416509032249451,
				0.8876559734344482,
				-0.3659587502479553
			],
			"type":"VEC3"
		},
		{
			"bufferView":9,
			"componentType":5126,
			"count":4853,
			"type":"VEC3"
		},
		{
			"bufferView":10,
			"componentType":5126,
			"count":4853,
			"type":"VEC2"
		},
		{
			"bufferView":11,
			"componentType":5123,
			"count":19200,
			"type":"SCALAR"
		}
	],
	"bufferViews":[
		{
			"buffer":0,
			"byteLength":5088,
			"byteOffset":0,
			"target":34962
		},
		{
			"buffer":0,
			"byteLength":5088,
			"byteOffset":5088,
			"target":34962
		},
		{
			"buffer":0,
			"byteLength":3392,
			"byteOffset":10176,
			"target":34962
		},
		{
			"buffer":0,
			"byteLength":3432,
			"byteOffset":13568,
			"target":34963
		},
		{
			"buffer":0,
			"byteLength":14400,
			"byteOffset":17000,
			"target":34962
		},
		{
			"buffer":0,
			"byteLength":14400,
			"byteOffset":31400,
			"target":34962
		},
		{
			"buffer":0,
			"byteLength":9600,
			"byteOffset":45800,
			"target":34962
		},
		{
			"buffer":0,
			"byteLength":8592,
			"byteOffset":55400,
			"target":34963
		},
		{
			"buffer":0,
			"byteLength":58236,
			"byteOffset":63992,
			"target":34962
		},
		{
			"buffer":0,
			"byteLength":58236,
			"byteOffset":122228,
			"target":34962
		},
		{
			"buffer":0,
			"byteLength":38824,
			"byteOffset":180464,
			"target":34962
		},
		{
			"buffer":0,
			"byteLength":38400,
			"byteOffset":219288,
			"target":34963
		}
	],
	"buffers":[
		{
			"byteLength":257688,
			"uri":"logo-model.bin"
		}
	]
}
