<svg width="125" height="100" viewBox="0 0 125 100" fill="none" xmlns="http://www.w3.org/2000/svg">
<g clip-path="url(#clip0_189_874)">
<path d="M102.785 68.2384C102.688 68.4056 102.56 68.5522 102.407 68.6696C102.254 68.787 102.079 68.873 101.893 68.9227C101.706 68.9724 101.512 68.9848 101.321 68.9591C101.13 68.9335 100.946 68.8703 100.779 68.7733C100.613 68.6762 100.467 68.5472 100.35 68.3935C100.233 68.2399 100.147 68.0646 100.098 67.8778C100.049 67.691 100.037 67.4962 100.062 67.3047C100.088 67.1132 100.152 66.9287 100.249 66.7617C100.29 66.6928 100.336 66.6272 100.387 66.5653L99.1531 57.7505L99.1162 57.4864L98.8656 55.6877L98.8287 55.4284L98.9652 55.4348L101.355 55.5443L101.996 55.5733L102.076 57.2142L102.531 66.4397C102.769 66.6675 102.923 66.9687 102.969 67.295C103.015 67.6212 102.95 67.9535 102.785 68.2384Z" fill="#FFB6B6"/>
<path d="M99.1232 57.5666L102.158 57.2875C102.315 57.2726 102.461 57.1958 102.562 57.0741C102.663 56.9523 102.712 56.7953 102.698 56.6374L102.136 50.3102C102.108 50.0029 102.02 49.7042 101.875 49.4317C101.731 49.1593 101.533 48.9187 101.294 48.7242C101.056 48.5296 100.78 48.3851 100.485 48.2991C100.189 48.2132 99.8794 48.1875 99.5738 48.2237C99.2681 48.2598 98.9729 48.3571 98.7054 48.5097C98.4379 48.6623 98.2037 48.8671 98.0166 49.1121C97.8295 49.357 97.6933 49.6371 97.6161 49.9358C97.5389 50.2344 97.5222 50.5456 97.567 50.8508L98.477 57.0569C98.4979 57.1991 98.5691 57.3291 98.6775 57.4231C98.786 57.5171 98.9245 57.5689 99.0678 57.5691C99.0862 57.5691 99.1047 57.5683 99.1232 57.5666Z" fill="#734636"/>
<path d="M101.423 52.4546C101.73 51.583 101.744 50.6346 101.464 49.754C101.183 48.8735 100.623 48.1091 99.8687 47.5774C98.7242 46.7924 97.1582 46.5106 95.4717 48.5234C92.0987 52.5492 91.2153 56.9776 91.2153 56.9776L98.1219 58.1048C98.1219 58.1048 100.471 55.2264 101.423 52.4546Z" fill="#734636"/>
<g opacity="0.2">
<path d="M97.0765 47.5573C97.5866 48.9665 98.1076 50.4323 98.1413 52.0055C98.1749 53.2078 97.8983 54.3984 97.3383 55.462C96.7971 56.4454 96.0066 57.1644 95.1365 57.4651C94.9731 57.5345 94.7931 57.5549 94.6184 57.5236C94.5214 57.4963 94.4332 57.4439 94.3626 57.3717C94.292 57.2995 94.2415 57.2101 94.2162 57.1122C94.1374 56.8347 94.232 56.5267 94.3251 56.2576C95.3576 53.2722 95.8581 50.6786 96.8906 47.6932L97.0765 47.5573Z" fill="#260F0F"/>
</g>
<path d="M90.2529 97.8019L88.2837 97.8018L87.3469 90.187L90.2532 90.1871L90.2529 97.8019Z" fill="#FFB6B6"/>
<path d="M84.4861 99.6348L90.6749 99.6351L90.675 97.2379L86.8773 97.2377C86.5633 97.2377 86.2524 97.2997 85.9623 97.4201C85.6722 97.5406 85.4086 97.7172 85.1865 97.9398C84.9645 98.1623 84.7883 98.4266 84.6681 98.7175C84.548 99.0083 84.4861 99.32 84.4861 99.6348Z" fill="#260F0F"/>
<path d="M106.442 96.0801L104.573 96.6997L101.299 89.7644L104.059 88.8501L106.442 96.0801Z" fill="#FFB6B6"/>
<path d="M101.541 99.6351L107.417 97.6879L106.667 95.4118L103.061 96.6067C102.459 96.8062 101.96 97.2374 101.675 97.8053C101.39 98.3732 101.342 99.0315 101.541 99.6351Z" fill="#260F0F"/>
<path d="M97.088 45.5808C94.9092 45.5808 93.143 43.8101 93.143 41.6257C93.143 39.4414 94.9092 37.6707 97.088 37.6707C99.2667 37.6707 101.033 39.4414 101.033 41.6257C101.033 43.8101 99.2667 45.5808 97.088 45.5808Z" fill="#FFB6B6"/>
<path d="M93.6338 95.682L95.4625 83.5814C95.482 83.4523 95.5457 83.3339 95.6426 83.2466C95.7395 83.1593 95.8636 83.1084 95.9938 83.1027C96.124 83.097 96.2521 83.1368 96.3562 83.2154C96.4603 83.2939 96.534 83.4062 96.5647 83.5331L99.3495 95.0649C99.3934 95.2416 99.5015 95.3954 99.6527 95.4963C99.8039 95.5971 99.9872 95.6376 100.167 95.61L107.848 94.3722C107.95 94.3558 108.047 94.3177 108.133 94.2605C108.219 94.2034 108.292 94.1284 108.347 94.0407C108.401 93.953 108.437 93.8545 108.45 93.752C108.464 93.6495 108.455 93.5452 108.425 93.4463L98.409 60.3391C98.3805 60.2449 98.3772 60.1449 98.3992 60.0489L98.7327 58.6001C98.7694 58.443 98.7525 58.2782 98.6847 58.1319C98.617 57.9855 98.5023 57.8661 98.359 57.7928C96.9951 57.095 93.5412 55.6445 90.9334 57.2334C90.8487 57.2852 90.7755 57.3536 90.718 57.4346C90.6606 57.5157 90.6203 57.6076 90.5994 57.7047L82.7746 94.5752C82.7533 94.6755 82.7535 94.7791 82.7751 94.8793C82.7967 94.9795 82.8393 95.074 82.9 95.1564C82.9608 95.2389 83.0382 95.3075 83.1274 95.3577C83.2165 95.408 83.3152 95.4387 83.4171 95.4478L92.8546 96.2951C92.8764 96.297 92.898 96.298 92.9194 96.298C93.0922 96.2976 93.2592 96.2354 93.3902 96.1224C93.5212 96.0094 93.6076 95.8532 93.6338 95.682Z" fill="#260F0F"/>
<path d="M87.3893 65.5584C87.2955 65.3665 87.2448 65.1563 87.2408 64.9427C87.2367 64.729 87.2795 64.517 87.366 64.3217C87.4525 64.1264 87.5806 63.9525 87.7415 63.8122C87.9023 63.6719 88.0918 63.5687 88.2967 63.5098L93.2266 53.4091L95.7698 55.3077L90.1426 64.6093C90.2185 64.9609 90.1631 65.3283 89.9869 65.6417C89.8106 65.9551 89.5259 66.1929 89.1865 66.3099C88.8471 66.4269 88.4767 66.415 88.1455 66.2765C87.8143 66.138 87.5452 65.8825 87.3893 65.5584Z" fill="#FFB6B6"/>
<path d="M96.0789 55.9381L99.1466 50.3811C99.3322 50.0471 99.4318 49.672 99.4364 49.2896C99.4409 48.9073 99.3503 48.5299 99.1727 48.1915C99.0275 47.9066 98.8221 47.6568 98.5709 47.4596C98.2469 47.2008 97.8592 47.0344 97.4488 46.978C97.0384 46.9216 96.6204 46.9772 96.2389 47.139C95.7082 47.3702 95.2804 47.7884 95.0363 48.3143L92.3471 53.9167C92.2808 54.0549 92.2698 54.2134 92.3165 54.3595C92.3631 54.5056 92.4639 54.6282 92.598 54.7021L95.2676 56.1732C95.4064 56.2495 95.5696 56.2676 95.7217 56.2235C95.8737 56.1795 96.0021 56.0768 96.0789 55.9381Z" fill="#734636"/>
<path d="M99.0468 38.1737C98.7191 38.059 98.4139 37.8879 98.1449 37.6681C98.0116 37.5566 97.9092 37.4125 97.8474 37.2497C97.7857 37.087 97.7668 36.9111 97.7925 36.7389C97.8978 36.2665 98.4492 36.0086 98.929 36.0617C99.4089 36.1149 99.8294 36.3952 100.229 36.6673C100.58 36.907 100.943 37.1581 101.162 37.5234C101.381 37.8887 101.415 38.403 101.123 38.7134C100.837 39.0181 100.336 39.0227 99.9613 38.8381C99.5868 38.6535 99.3097 38.3214 99.0441 37.9986L99.0468 38.1737Z" fill="#260F0F"/>
<path d="M100.125 36.797C99.9195 35.7016 100.997 34.6599 102.108 34.6292C103.22 34.5985 104.234 35.3419 104.856 36.2656C106.171 38.2172 106.024 40.7884 105.631 43.1103C105.239 45.4323 104.654 47.8284 105.255 50.1049C105.597 51.332 106.263 52.4438 107.183 53.3229C108.102 54.202 109.242 54.8156 110.481 55.0991C109.386 55.9013 107.823 55.636 106.629 54.992C103.978 53.5619 102.402 50.358 102.886 47.3784C103.124 45.9087 103.801 44.5526 104.255 43.1348C104.709 41.7171 104.924 40.1131 104.261 38.7812C103.597 37.4492 101.783 36.6374 100.548 37.4654L100.125 36.797Z" fill="#260F0F"/>
<path d="M97.181 43.2113C97.399 42.5705 97.583 41.7506 96.8638 41.3808C96.7085 41.3053 96.5396 41.2617 96.3673 41.2526C96.1949 41.2434 96.0224 41.2689 95.86 41.3276C95.1837 41.5565 94.4354 41.7491 93.7113 41.6368C93.4414 41.6026 93.1811 41.5144 92.9458 41.3773C92.7106 41.2403 92.5052 41.0573 92.3419 40.8391C91.8239 40.0882 92.0498 38.9967 92.6662 38.3245C93.0457 37.9249 93.5344 37.6466 94.0711 37.5243C94.6078 37.4021 95.1685 37.4415 95.683 37.6376C96.5352 37.0256 97.7125 36.9722 98.6844 37.3661C99.6562 37.7599 100.43 38.5542 100.951 39.4663C101.418 40.2474 101.657 41.1444 101.641 42.055C101.608 42.6931 101.423 43.3138 101.1 43.8646C100.777 44.4155 100.326 44.8802 99.7864 45.2195C99.5772 45.3572 99.3355 45.4374 99.0857 45.452C98.8358 45.4667 98.5865 45.4152 98.3627 45.3028C98.3627 45.3028 97.7335 44.9484 97.4502 44.4221C97.2326 44.0179 97.0646 43.5536 97.181 43.2113Z" fill="#260F0F"/>
<path d="M63.6432 100H124.839C124.882 100 124.923 99.983 124.953 99.9528C124.983 99.9226 125 99.8817 125 99.8389C125 99.7962 124.983 99.7553 124.953 99.7251C124.923 99.6949 124.882 99.6779 124.839 99.6779H63.6432C63.6006 99.6779 63.5597 99.6949 63.5296 99.7251C63.4995 99.7553 63.4826 99.7962 63.4826 99.8389C63.4826 99.8817 63.4995 99.9226 63.5296 99.9528C63.5597 99.983 63.6006 100 63.6432 100Z" fill="#260F0F"/>
<path d="M26.9924 61.8932H46.4503C46.98 61.8926 47.4878 61.6814 47.8624 61.3059C48.2369 60.9304 48.4476 60.4213 48.4482 59.8903V28.5139C48.4476 27.9829 48.2369 27.4737 47.8624 27.0982C47.4878 26.7227 46.98 26.5115 46.4503 26.5109H26.9924V61.8932ZM46.4503 26.833C46.8949 26.8335 47.321 27.0107 47.6354 27.3259C47.9497 27.641 48.1265 28.0682 48.127 28.5139V59.8903C48.1265 60.3359 47.9497 60.7632 47.6354 61.0783C47.321 61.3934 46.8949 61.5707 46.4503 61.5712H27.3136V26.833H46.4503Z" fill="#260F0F"/>
<path d="M27.4956 26.5109H8.03765C7.50797 26.5115 7.00015 26.7227 6.6256 27.0982C6.25105 27.4737 6.04036 27.9829 6.03975 28.5139V59.8903C6.04036 60.4213 6.25105 60.9304 6.6256 61.3059C7.00015 61.6814 7.50797 61.8926 8.03765 61.8932H27.4956V26.5109Z" fill="#260F0F"/>
<path d="M41.4874 18.3854H41.707V28.624H41.4874V18.3854Z" fill="#260F0F"/>
<path d="M41.5316 18.6056C41.9877 18.6056 42.4335 18.47 42.8128 18.216C43.192 17.962 43.4876 17.6009 43.6621 17.1784C43.8366 16.756 43.8823 16.2911 43.7933 15.8427C43.7044 15.3942 43.4847 14.9822 43.1622 14.6589C42.8397 14.3356 42.4288 14.1154 41.9815 14.0262C41.5342 13.937 41.0705 13.9828 40.6491 14.1577C40.2277 14.3327 39.8676 14.6291 39.6142 15.0092C39.3608 15.3894 39.2256 15.8364 39.2256 16.2937C39.2256 16.9069 39.4685 17.4949 39.901 17.9285C40.3334 18.3621 40.92 18.6056 41.5316 18.6056ZM41.5316 14.2019C41.9443 14.2019 42.3476 14.3246 42.6908 14.5545C43.0339 14.7843 43.3013 15.111 43.4592 15.4932C43.6171 15.8754 43.6584 16.296 43.5779 16.7018C43.4974 17.1075 43.2987 17.4802 43.0069 17.7728C42.7151 18.0653 42.3434 18.2645 41.9386 18.3453C41.5339 18.426 41.1144 18.3845 40.7332 18.2262C40.3519 18.0679 40.0261 17.7998 39.7968 17.4558C39.5675 17.1118 39.4452 16.7074 39.4452 16.2937C39.4452 15.7389 39.665 15.2069 40.0563 14.8146C40.4476 14.4223 40.9782 14.2019 41.5316 14.2019Z" fill="#260F0F"/>
<path d="M19.0172 4.6239H19.2368V28.2938H19.0172V4.6239Z" fill="#260F0F"/>
<path d="M19.0611 4.62388C19.5172 4.62388 19.9631 4.48829 20.3423 4.23425C20.7215 3.98021 21.0171 3.61913 21.1916 3.19668C21.3662 2.77423 21.4119 2.30938 21.3229 1.8609C21.2339 1.41243 21.0143 1.00048 20.6918 0.677153C20.3693 0.353823 19.9584 0.133631 19.511 0.0444244C19.0637 -0.0447823 18.6 0.00100143 18.1787 0.175987C17.7573 0.350972 17.3971 0.647299 17.1437 1.0275C16.8903 1.40769 16.7551 1.85468 16.7551 2.31194C16.7551 2.92511 16.9981 3.51316 17.4305 3.94673C17.863 4.3803 18.4495 4.62388 19.0611 4.62388ZM19.0611 0.220188C19.4738 0.220188 19.8772 0.342865 20.2203 0.57271C20.5634 0.802555 20.8308 1.12924 20.9887 1.51146C21.1467 1.89368 21.188 2.31426 21.1075 2.72002C21.027 3.12578 20.8283 3.4985 20.5365 3.79104C20.2447 4.08357 19.8729 4.28279 19.4682 4.3635C19.0635 4.44422 18.644 4.40279 18.2627 4.24447C17.8815 4.08615 17.5556 3.81804 17.3263 3.47406C17.0971 3.13007 16.9747 2.72565 16.9747 2.31194C16.9747 1.75717 17.1945 1.22513 17.5858 0.832849C17.9771 0.440569 18.5078 0.220188 19.0611 0.220188Z" fill="#260F0F"/>
<path d="M27.2334 51.7004C29.1733 51.7004 31.0338 50.9278 32.4055 49.5526C33.7772 48.1773 34.5479 46.3121 34.5479 44.3672C34.5479 42.4224 33.7772 40.5571 32.4055 39.1819C31.0338 37.8067 29.1733 37.0341 27.2334 37.0341V51.7004Z" fill="#734636"/>
<path d="M27.2334 37.0341C25.2935 37.0341 23.433 37.8067 22.0613 39.1819C20.6895 40.5571 19.9189 42.4224 19.9189 44.3672C19.9189 46.3121 20.6895 48.1773 22.0613 49.5526C23.433 50.9278 25.2935 51.7004 27.2334 51.7004V37.0341Z" fill="#D9D1BA"/>
<path d="M1.86671 66.0225H52.38C52.875 66.022 53.3495 65.8246 53.6994 65.4737C54.0494 65.1229 54.2463 64.6472 54.2468 64.151V24.1431C54.2463 23.6469 54.0494 23.1711 53.6994 22.8203C53.3495 22.4694 52.875 22.272 52.38 22.2715H1.86671C1.37178 22.272 0.897273 22.4694 0.547302 22.8203C0.19733 23.1711 0.000472817 23.6469 -8.45215e-05 24.1431V64.151C0.000472817 64.6472 0.19733 65.1229 0.547302 65.4737C0.897273 65.8246 1.37178 66.022 1.86671 66.0225ZM52.38 22.4917C52.8167 22.4922 53.2354 22.6663 53.5442 22.9759C53.853 23.2855 54.0267 23.7052 54.0272 24.1431V64.151C54.0267 64.5888 53.853 65.0085 53.5442 65.3181C53.2354 65.6277 52.8167 65.8018 52.38 65.8023H1.86671C1.43 65.8018 1.01133 65.6277 0.70253 65.3181C0.393732 65.0085 0.220027 64.5888 0.219533 64.151V24.1431C0.220027 23.7052 0.393732 23.2855 0.70253 22.9759C1.01133 22.6663 1.43 22.4922 1.86671 22.4917H52.38Z" fill="#260F0F"/>
<path d="M30.4046 11.9163H30.6243V40.0572H30.4046V11.9163Z" fill="#260F0F"/>
<path d="M30.4488 12.0033C30.9049 12.0033 31.3508 11.8677 31.73 11.6137C32.1092 11.3597 32.4048 10.9986 32.5793 10.5761C32.7539 10.1537 32.7996 9.68883 32.7106 9.24036C32.6216 8.79189 32.402 8.37994 32.0795 8.05661C31.7569 7.73328 31.3461 7.51309 30.8987 7.42388C30.4514 7.33467 29.9877 7.38046 29.5663 7.55544C29.145 7.73043 28.7848 8.02676 28.5314 8.40695C28.278 8.78715 28.1428 9.23414 28.1428 9.6914C28.1428 10.3046 28.3857 10.8926 28.8182 11.3262C29.2507 11.7598 29.8372 12.0033 30.4488 12.0033ZM30.4488 7.59964C30.8615 7.59964 31.2649 7.72232 31.608 7.95217C31.9511 8.18201 32.2185 8.5087 32.3764 8.89092C32.5344 9.27314 32.5757 9.69372 32.4952 10.0995C32.4147 10.5052 32.2159 10.878 31.9242 11.1705C31.6324 11.463 31.2606 11.6623 30.8559 11.743C30.4511 11.8237 30.0316 11.7822 29.6504 11.6239C29.2692 11.4656 28.9433 11.1975 28.714 10.8535C28.4848 10.5095 28.3624 10.1051 28.3624 9.6914C28.3624 9.13663 28.5822 8.60459 28.9735 8.21231C29.3648 7.82003 29.8955 7.59964 30.4488 7.59964Z" fill="#260F0F"/>
<path d="M44.7702 60.0644C43.9719 60.0644 43.3247 59.4156 43.3247 58.6152C43.3247 57.8148 43.9719 57.1659 44.7702 57.1659C45.5686 57.1659 46.2158 57.8148 46.2158 58.6152C46.2158 59.4156 45.5686 60.0644 44.7702 60.0644Z" fill="#260F0F"/>
<path d="M9.27341 60.0644C8.47504 60.0644 7.82784 59.4156 7.82784 58.6152C7.82784 57.8148 8.47504 57.1659 9.27341 57.1659C10.0718 57.1659 10.719 57.8148 10.719 58.6152C10.719 59.4156 10.0718 60.0644 9.27341 60.0644Z" fill="#D9D1BA"/>
<path d="M44.7702 31.2399C43.9719 31.2399 43.3247 30.5911 43.3247 29.7906C43.3247 28.9902 43.9719 28.3414 44.7702 28.3414C45.5686 28.3414 46.2158 28.9902 46.2158 29.7906C46.2158 30.5911 45.5686 31.2399 44.7702 31.2399Z" fill="#260F0F"/>
<path d="M9.27341 31.2399C8.47504 31.2399 7.82784 30.5911 7.82784 29.7906C7.82784 28.9902 8.47504 28.3414 9.27341 28.3414C10.0718 28.3414 10.719 28.9902 10.719 29.7906C10.719 30.5911 10.0718 31.2399 9.27341 31.2399Z" fill="#D9D1BA"/>
<path d="M42.1905 19.2662C40.9775 19.2662 39.9943 18.2804 39.9943 17.0643C39.9943 15.8483 40.9775 14.8625 42.1905 14.8625C43.4034 14.8625 44.3867 15.8483 44.3867 17.0643C44.3867 18.2804 43.4034 19.2662 42.1905 19.2662Z" fill="#D9D1BA"/>
<path d="M19.72 5.28443C18.5071 5.28443 17.5238 4.29863 17.5238 3.08258C17.5238 1.86654 18.5071 0.880737 19.72 0.880737C20.933 0.880737 21.9163 1.86654 21.9163 3.08258C21.9163 4.29863 20.933 5.28443 19.72 5.28443Z" fill="#260F0F"/>
<path d="M31.1077 12.6639C29.8948 12.6639 28.9115 11.6781 28.9115 10.462C28.9115 9.24599 29.8948 8.26019 31.1077 8.26019C32.3207 8.26019 33.304 9.24599 33.304 10.462C33.304 11.6781 32.3207 12.6639 31.1077 12.6639Z" fill="#734636"/>
</g>
<defs>
<clipPath id="clip0_189_874">
<rect width="125" height="100" fill="white" transform="matrix(-1 0 0 1 125 0)"/>
</clipPath>
</defs>
</svg>
