<svg width="125" height="100" viewBox="0 0 125 100" fill="none" xmlns="http://www.w3.org/2000/svg">
<g clip-path="url(#clip0_189_810)">
<path d="M31.5471 56.1046H0.726535C0.533914 56.1044 0.349246 56.0278 0.213043 55.8915C0.0768394 55.7553 0.000223436 55.5706 0 55.3779V18.4593C0.000223436 18.2666 0.0768394 18.0819 0.213043 17.9457C0.349246 17.8094 0.533914 17.7328 0.726535 17.7325H31.5471C31.7397 17.7328 31.9244 17.8094 32.0606 17.9456C32.1968 18.0819 32.2734 18.2666 32.2736 18.4593V55.3779C32.2734 55.5706 32.1968 55.7553 32.0606 55.8915C31.9244 56.0278 31.7397 56.1044 31.5471 56.1046ZM0.726535 18.0232C0.610961 18.0234 0.500157 18.0694 0.418434 18.1511C0.336711 18.2328 0.290743 18.3437 0.290614 18.4593V55.3779C0.290743 55.4935 0.336711 55.6043 0.418434 55.6861C0.500157 55.7678 0.610961 55.8138 0.726535 55.8139H31.5471C31.6627 55.8138 31.7735 55.7678 31.8552 55.6861C31.9369 55.6043 31.9829 55.4935 31.983 55.3779V18.4593C31.9829 18.3437 31.9369 18.2328 31.8552 18.1511C31.7735 18.0693 31.6627 18.0234 31.5471 18.0232H0.726535Z" fill="#D9D1BA"/>
<path d="M27.3981 25.5814H4.87549V39.5349H27.3981V25.5814Z" fill="#734636"/>
<path d="M10.5425 44.7675H4.87549V48.2558H10.5425V44.7675Z" fill="#D9D1BA"/>
<path d="M27.3982 44.7675H21.7312V48.2558H27.3982V44.7675Z" fill="#D9D1BA"/>
<path d="M18.9702 44.7675H13.3032V48.2558H18.9702V44.7675Z" fill="#D9D1BA"/>
<path d="M73.9768 38.3721H43.1562C42.9636 38.3719 42.7789 38.2952 42.6427 38.159C42.5065 38.0227 42.4299 37.838 42.4297 37.6453V0.726744C42.4299 0.534067 42.5065 0.349345 42.6427 0.213102C42.7789 0.0768586 42.9636 0.000220429 43.1562 0H73.9768C74.1694 0.000220429 74.3541 0.0768586 74.4903 0.213102C74.6265 0.349345 74.7031 0.534067 74.7033 0.726744V37.6453C74.7031 37.838 74.6265 38.0227 74.4903 38.159C74.3541 38.2952 74.1694 38.3719 73.9768 38.3721ZM43.1562 0.290698C43.0406 0.290824 42.9298 0.336805 42.8481 0.418552C42.7664 0.500299 42.7204 0.611136 42.7203 0.726744V37.6453C42.7204 37.761 42.7664 37.8718 42.8481 37.9535C42.9298 38.0353 43.0406 38.0813 43.1562 38.0814H73.9768C74.0924 38.0813 74.2032 38.0353 74.2849 37.9535C74.3666 37.8718 74.4126 37.761 74.4127 37.6453V0.726744C74.4126 0.611136 74.3666 0.500299 74.2849 0.418552C74.2032 0.336805 74.0924 0.290824 73.9768 0.290698H43.1562Z" fill="#D9D1BA"/>
<path d="M74.3449 61.7732H43.5244C43.3318 61.773 43.1471 61.6964 43.0109 61.5601C42.8747 61.4239 42.7981 61.2392 42.7979 61.0465V50.1453C42.7981 49.9526 42.8747 49.7679 43.0109 49.6317C43.1471 49.4954 43.3318 49.4188 43.5244 49.4186H74.3449C74.5375 49.4188 74.7222 49.4954 74.8584 49.6317C74.9946 49.7679 75.0712 49.9526 75.0715 50.1453V61.0465C75.0712 61.2392 74.9946 61.4239 74.8584 61.5601C74.7222 61.6964 74.5375 61.773 74.3449 61.7732ZM43.5244 49.7093C43.4088 49.7094 43.298 49.7554 43.2163 49.8371C43.1346 49.9189 43.0886 50.0297 43.0885 50.1453V61.0465C43.0886 61.1621 43.1346 61.2729 43.2163 61.3547C43.298 61.4364 43.4088 61.4824 43.5244 61.4825H74.3449C74.4605 61.4824 74.5713 61.4364 74.653 61.3547C74.7347 61.2729 74.7807 61.1621 74.7808 61.0465V50.1453C74.7807 50.0297 74.7347 49.9189 74.653 49.8371C74.5713 49.7554 74.4605 49.7094 74.3449 49.7093H43.5244Z" fill="#D9D1BA"/>
<path d="M68.0115 24.782H49.1216C48.1586 24.782 47.3779 25.5629 47.3779 26.5262V26.5262C47.3779 27.4895 48.1586 28.2704 49.1216 28.2704H68.0115C68.9745 28.2704 69.7552 27.4895 69.7552 26.5262C69.7552 25.5629 68.9745 24.782 68.0115 24.782Z" fill="#D9D1BA"/>
<path d="M68.0115 30.3052H49.1216C48.1586 30.3052 47.3779 31.0861 47.3779 32.0494V32.0494C47.3779 33.0127 48.1586 33.7936 49.1216 33.7936H68.0115C68.9745 33.7936 69.7552 33.0127 69.7552 32.0494C69.7552 31.0861 68.9745 30.3052 68.0115 30.3052Z" fill="#D9D1BA"/>
<path d="M58.5664 20.8576C63.0604 20.8576 66.7036 17.2134 66.7036 12.718C66.7036 8.22268 63.0604 4.57849 58.5664 4.57849C54.0723 4.57849 50.4292 8.22268 50.4292 12.718C50.4292 17.2134 54.0723 20.8576 58.5664 20.8576Z" fill="#734636"/>
<path d="M67.7256 53.8517H59.4431C58.4801 53.8517 57.6995 54.6326 57.6995 55.5959C57.6995 56.5592 58.4801 57.3401 59.4431 57.3401H67.7256C68.6887 57.3401 69.4693 56.5592 69.4693 55.5959C69.4693 54.6326 68.6887 53.8517 67.7256 53.8517Z" fill="#D9D1BA"/>
<path d="M51.5967 58.7936C53.3622 58.7936 54.7934 57.362 54.7934 55.5959C54.7934 53.8299 53.3622 52.3983 51.5967 52.3983C49.8311 52.3983 48.3999 53.8299 48.3999 55.5959C48.3999 57.362 49.8311 58.7936 51.5967 58.7936Z" fill="#734636"/>
<path d="M124.855 100H69.4927C69.4542 100 69.4172 99.9847 69.39 99.9574C69.3627 99.9302 69.3474 99.8932 69.3474 99.8546C69.3474 99.8161 69.3627 99.7791 69.39 99.7519C69.4172 99.7246 69.4542 99.7093 69.4927 99.7093H124.855C124.893 99.7093 124.93 99.7246 124.957 99.7519C124.985 99.7791 125 99.8161 125 99.8546C125 99.8932 124.985 99.9302 124.957 99.9574C124.93 99.9847 124.893 100 124.855 100Z" fill="#D9D1BA"/>
<path d="M108.454 68.6112C108.353 68.4661 108.284 68.3006 108.254 68.1263C108.223 67.9519 108.231 67.773 108.277 67.6021C108.323 67.4312 108.406 67.2725 108.52 67.1372C108.635 67.0018 108.777 66.8931 108.937 66.8188L108.51 62.5375L110.489 63.5767L110.592 67.4829C110.699 67.761 110.7 68.0687 110.595 68.3478C110.491 68.6268 110.287 68.8577 110.024 68.9968C109.76 69.1359 109.455 69.1735 109.166 69.1024C108.876 69.0313 108.623 68.8566 108.454 68.6112Z" fill="#FFB6B6"/>
<path d="M91.121 68.0092C91.0196 67.8641 90.9512 67.6986 90.9207 67.5242C90.8902 67.3499 90.8983 67.1709 90.9444 67C90.9905 66.8292 91.0734 66.6704 91.1875 66.5351C91.3015 66.3998 91.4438 66.2911 91.6044 66.2167L91.1766 61.9355L93.1557 62.9746L93.2586 66.8808C93.3656 67.1589 93.3669 67.4667 93.2623 67.7457C93.1577 68.0247 92.9543 68.2557 92.6908 68.3948C92.4273 68.5338 92.122 68.5714 91.8327 68.5003C91.5433 68.4293 91.2901 68.2545 91.121 68.0092Z" fill="#FFB6B6"/>
<path d="M104.323 98.2172H102.847L102.145 92.5236H104.323L104.323 98.2172Z" fill="#FFB6B6"/>
<path d="M104.699 99.648L99.9412 99.6478V99.5877C99.9412 99.0963 100.136 98.6251 100.484 98.2777C100.831 97.9303 101.302 97.7351 101.793 97.7351L104.699 97.7352L104.699 99.648Z" fill="#260F0F"/>
<path d="M93.3696 98.2172H91.8939L91.1919 92.5236H93.3698L93.3696 98.2172Z" fill="#FFB6B6"/>
<path d="M93.7458 99.648L88.9875 99.6478V99.5877C88.9876 99.0963 89.1827 98.6251 89.53 98.2777C89.8774 97.9303 90.3484 97.7351 90.8396 97.7351L93.7459 97.7352L93.7458 99.648Z" fill="#260F0F"/>
<path d="M103.261 39.0172C105.149 37.9846 105.843 35.6161 104.811 33.727C103.779 31.838 101.411 31.1437 99.5222 32.1764C97.6337 33.209 96.9397 35.5775 97.972 37.4666C99.0044 39.3556 101.372 40.0499 103.261 39.0172Z" fill="#FFB6B6"/>
<path d="M92.7898 65.986L92.0676 67.1304L90.6233 96.9295L93.6324 96.8091L99.6509 71.6449L102.058 97.0498L104.706 97.1703L106.855 67.6266L92.7898 65.986Z" fill="#260F0F"/>
<path d="M108.558 43.4708L103.623 40.8219L98.086 40.4607L93.2069 43.4708C93.2069 43.4708 97.4842 56.113 92.7898 63.4576L92.0676 66.9493L106.993 68.0329C106.993 68.0329 106.03 52.3806 107.354 50.4541C108.678 48.5277 108.558 43.4708 108.558 43.4708Z" fill="#260F0F"/>
<path d="M106.855 44.1268L108.558 43.4708C108.558 43.4708 111.567 46.1196 111.447 52.501C111.326 58.8823 110.676 65.9861 110.676 65.9861L108.438 66.3473L107.234 55.9926L105.549 46.9624L106.855 44.1268Z" fill="#260F0F"/>
<path d="M94.9744 44.1268L93.2712 43.4708C93.2712 43.4708 90.2621 46.1196 90.3824 52.501C90.5028 58.8823 91.153 65.9861 91.153 65.9861L93.3916 66.3473L94.5953 55.9926L96.2804 46.9624L94.9744 44.1268Z" fill="#260F0F"/>
<path d="M104.209 31.6642C103.867 31.3293 103.459 31.071 103.01 30.9067C102.561 30.7423 102.082 30.6756 101.605 30.711C100.767 30.7788 100.712 30.7991 99.9585 31.1739C99.489 31.3961 99.033 31.6456 98.5927 31.9212C98.5886 31.7421 97.8452 31.0571 97.7249 31.1897C97.6046 31.3224 98.0351 32.1841 97.9389 32.3352C97.8428 32.4862 96.9732 31.946 96.8823 31.7917C97.554 32.7184 98.441 34.5503 98.2282 35.675C98.3752 35.509 98.568 35.3904 98.7823 35.334C98.9967 35.2777 99.2229 35.2861 99.4325 35.3583C99.642 35.4305 99.8255 35.5632 99.9597 35.7397C100.094 35.9161 100.173 36.1284 100.186 36.3496C100.234 37.1186 99.5214 37.9616 99.9873 38.5751C100.254 38.9261 100.761 38.9552 101.202 38.9532L104.462 38.5897C105.162 37.4732 105.599 36.5876 105.79 35.2834C105.98 33.9792 105.143 32.5934 104.209 31.6642Z" fill="#260F0F"/>
</g>
<defs>
<clipPath id="clip0_189_810">
<rect width="125" height="100" fill="white"/>
</clipPath>
</defs>
</svg>
