<svg width="126" height="100" viewBox="0 0 126 100" fill="none" xmlns="http://www.w3.org/2000/svg">
<g clip-path="url(#clip0_189_911)">
<path d="M111.238 75.2234C111.345 75.2283 111.452 75.2 111.543 75.1421C111.635 75.0843 111.706 74.9998 111.747 74.9C111.789 74.8002 111.799 74.69 111.776 74.5844C111.753 74.4787 111.698 74.3826 111.619 74.3092C111.606 74.2564 111.596 74.2184 111.583 74.1656C111.588 74.1541 111.593 74.1426 111.597 74.1311C111.706 73.874 111.888 73.6549 112.121 73.5011C112.353 73.3474 112.626 73.2659 112.905 73.2669C113.183 73.268 113.456 73.3515 113.687 73.5069C113.918 73.6624 114.099 73.8829 114.206 74.1408C114.632 75.1699 115.175 76.2008 115.309 77.289C115.368 77.77 115.343 78.2576 115.236 78.7301C116.237 76.5408 116.758 74.1613 116.761 71.7529C116.761 71.1486 116.728 70.5447 116.661 69.9441C116.605 69.4517 116.528 68.9628 116.43 68.4775C115.893 65.844 114.74 63.3756 113.066 61.2752C112.255 60.8323 111.6 60.1512 111.188 59.3237C111.039 59.0263 110.933 58.7087 110.875 58.381C110.966 58.393 111.059 58.4005 111.151 58.4065C111.179 58.408 111.209 58.4095 111.237 58.411L111.248 58.4115C111.349 58.416 111.448 58.3914 111.535 58.3405C111.622 58.2896 111.692 58.2147 111.737 58.1247C111.783 58.0348 111.801 57.9336 111.79 57.8335C111.779 57.7333 111.74 57.6384 111.677 57.5602C111.637 57.5115 111.598 57.4629 111.558 57.4143C111.498 57.3392 111.437 57.2657 111.377 57.1906C111.37 57.1835 111.363 57.176 111.357 57.1681C111.288 57.0825 111.219 56.9985 111.151 56.9129C111.276 56.7173 111.446 56.5534 111.645 56.4341C112.336 56.0288 113.289 56.3095 113.788 56.9355C114.288 57.5614 114.383 58.4396 114.209 59.2216C114.038 59.8871 113.755 60.5186 113.373 61.089C113.41 61.1371 113.449 61.1836 113.487 61.2316C114.172 62.1138 114.769 63.061 115.269 64.0597C115.147 62.9408 115.292 61.809 115.693 60.7573C116.098 59.7771 116.858 58.9516 117.528 58.1043C118.332 57.0865 119.981 57.5307 120.123 58.8209C120.124 58.8334 120.126 58.8459 120.127 58.8584C120.027 58.9146 119.93 58.9742 119.835 59.0373C119.715 59.1174 119.622 59.2318 119.569 59.3655C119.515 59.4993 119.503 59.6462 119.534 59.7869C119.565 59.9276 119.638 60.0557 119.743 60.1542C119.848 60.2528 119.981 60.3172 120.123 60.3392L120.137 60.3415C120.102 60.7005 120.039 61.0563 119.95 61.4058C119.691 62.3814 119.234 63.2931 118.607 64.0835C117.98 64.8739 117.197 65.5261 116.307 65.9992C116.249 66.0292 116.192 66.0592 116.133 66.0877C116.636 67.5148 116.951 69.0014 117.071 70.51C117.139 71.4 117.135 72.2941 117.059 73.1835L117.064 73.1519C117.256 72.163 117.782 71.2706 118.555 70.6256C119.702 69.6814 121.323 69.3337 122.561 68.5747C122.693 68.4901 122.846 68.4449 123.002 68.4446C123.159 68.4442 123.312 68.4886 123.444 68.5726C123.576 68.6565 123.681 68.7766 123.747 68.9185C123.813 69.0604 123.837 69.2183 123.817 69.3735C123.815 69.3846 123.814 69.3956 123.812 69.4067C123.627 69.482 123.448 69.5687 123.274 69.6663C123.174 69.7226 123.077 69.7822 122.982 69.8453C122.862 69.9254 122.769 70.0398 122.716 70.1735C122.662 70.3073 122.65 70.4542 122.681 70.5949C122.712 70.7356 122.785 70.8636 122.89 70.9622C122.995 71.0607 123.128 71.1252 123.27 71.1472L123.284 71.1494C123.295 71.1509 123.304 71.1524 123.314 71.154C122.999 71.9081 122.556 72.6022 122.006 73.206C121.326 73.9368 120.504 74.5208 119.591 74.9222C118.678 75.3236 117.692 75.5339 116.695 75.5402H116.694C116.423 76.7186 116.031 77.8656 115.523 78.9627H111.342C111.327 78.9162 111.314 78.8681 111.3 78.8216C111.687 78.846 112.076 78.8228 112.457 78.7526C112.147 78.3713 111.837 77.987 111.527 77.6057C111.52 77.5986 111.513 77.5911 111.507 77.5832C111.35 77.3881 111.191 77.1944 111.034 76.9993L111.034 76.999C111.025 76.4009 111.094 75.8041 111.237 75.2235L111.238 75.2234Z" fill="#D9D1BA"/>
<path d="M61.9311 79.0193C61.9311 79.0422 61.9355 79.0648 61.9442 79.0859C61.9529 79.107 61.9657 79.1262 61.9818 79.1423C61.9979 79.1585 62.017 79.1713 62.0381 79.18C62.0592 79.1887 62.0818 79.1931 62.1046 79.193H125.827C125.873 79.193 125.917 79.1748 125.949 79.1422C125.982 79.1096 126 79.0654 126 79.0193C126 78.9733 125.982 78.9291 125.949 78.8965C125.917 78.8639 125.873 78.8456 125.827 78.8456H62.1045C62.0818 78.8456 62.0592 78.85 62.0381 78.8587C62.017 78.8674 61.9979 78.8802 61.9818 78.8964C61.9657 78.9125 61.9529 78.9317 61.9442 78.9528C61.9355 78.9739 61.9311 78.9965 61.9311 79.0193Z" fill="#CCCCCC"/>
<path d="M92.6326 56.7065C92.8726 56.6489 93.1222 56.6448 93.364 56.6944C93.6057 56.744 93.8337 56.846 94.0318 56.9934C94.2299 57.1408 94.3933 57.3299 94.5106 57.5474C94.6278 57.7649 94.696 58.0055 94.7104 58.2522L98.3533 59.5222L98.1228 61.9279L93.0035 60.0621C92.5881 60.0589 92.1883 59.9031 91.8799 59.6242C91.5714 59.3454 91.3758 58.963 91.3301 58.5493C91.2844 58.1357 91.3917 57.7196 91.6318 57.38C91.8718 57.0403 92.2279 56.8007 92.6326 56.7065Z" fill="#FFB6B6"/>
<path d="M98.5695 63.6988C100.018 64.7101 102.57 65.2275 106.043 65.2037C106.235 65.2043 106.425 65.1648 106.602 65.0878C106.778 65.0108 106.936 64.898 107.067 64.7565C107.996 63.7871 107.96 61.5744 107.954 61.3607L108.973 57.5155C108.994 57.4567 109.558 55.8789 108.985 54.7772C108.863 54.5471 108.692 54.3461 108.485 54.1882C108.278 54.0302 108.04 53.919 107.786 53.8622C105.632 53.2896 103.607 59.0655 103.35 59.8287L100.327 59.313L98.2389 59.227L96.115 58.0526L94.9191 60.9195L97.8785 63.0858C98.0827 63.318 98.3148 63.5239 98.5695 63.6988Z" fill="#260F0F"/>
<path d="M92.7368 95.493L90.5101 95.5972L89.0491 87.0433L92.3355 86.8895L92.7368 95.493Z" fill="#FFB6B6"/>
<path d="M93.2375 94.3667L89.7076 94.3212L89.7782 95.8319L86.5397 98.3038C86.3797 98.4259 86.2629 98.596 86.2063 98.7893C86.1496 98.9826 86.1562 99.189 86.2249 99.3783C86.2937 99.5676 86.421 99.7299 86.5884 99.8416C86.7558 99.9532 86.9544 100.008 87.1553 99.9989L91.346 99.8026L91.9986 98.2745L92.3504 99.7556L93.9304 99.6816L93.2375 94.3667Z" fill="#260F0F"/>
<path d="M69.4878 77.1266L68.6766 75.0467L76.2993 70.9227L80.1501 73.3472L69.4878 77.1266Z" fill="#FFB6B6"/>
<path d="M70.7134 77.2416L69.6268 73.8771L68.2206 74.4275L64.8462 72.1452C64.6795 72.0325 64.4812 71.976 64.2803 71.9842C64.0794 71.9923 63.8863 72.0645 63.7293 72.1904C63.5722 72.3162 63.4594 72.489 63.4074 72.6836C63.3553 72.8782 63.3668 73.0843 63.44 73.2719L64.9668 77.1862L66.621 77.3164L65.3327 78.1243L65.9084 79.6001L70.7134 77.2416Z" fill="#260F0F"/>
<path d="M113.279 70.9365C113.279 70.9365 112.354 76.8505 107.983 77.2884C103.611 77.7263 99.5816 75.7534 99.5816 75.7534L87.3411 71.9772C87.3411 71.9772 74.3215 75.6828 72.1357 76.2666C72.1357 76.2666 70.628 72.8387 70.6785 72.6174C71.1434 70.58 71.749 71.9583 71.749 71.9583L85.5924 65.8276C85.5924 65.8276 87.7782 65.2437 91.567 66.8494C95.3557 68.455 105.506 72.3255 105.506 72.3255L113.279 70.9365Z" fill="#260F0F"/>
<path d="M113.229 70.5739C113.229 70.5739 113.958 77.6587 109.699 78.741C105.651 79.7699 100.067 78.7144 100.067 78.7144L93.4107 78.0183C93.4107 78.0183 93.1193 86.586 93.1193 90.8191C91.7668 91.0032 90.404 91.1007 89.0391 91.111C88.7477 91.111 88.7283 90.958 88.7283 90.958L88.164 76.1504C88.1244 75.5066 88.2197 74.8616 88.4439 74.257C88.6682 73.6523 89.0163 73.1014 89.4658 72.6396C89.9154 72.1778 90.4565 71.8155 91.0544 71.5758C91.6522 71.3361 92.2935 71.2245 92.937 71.2481C93.2512 71.2601 93.5809 71.2824 93.9259 71.3149C98.021 71.7083 103.105 70.8721 103.105 70.8721L113.229 70.5739Z" fill="#260F0F"/>
<path d="M101.417 60.296C101.417 60.296 99.6881 70.7683 100.856 71.6043C102.025 72.4403 103.627 72.4435 103.627 72.4435L104 66.6614L101.417 60.296Z" fill="#260F0F"/>
<path d="M104.3 47.4344L101.989 49.6347C100.914 50.6573 100.202 52.0031 99.9603 53.4678C99.7184 54.9325 99.9599 56.4363 100.648 57.7511L101.753 59.8617L104.3 47.4344Z" fill="#260F0F"/>
<path d="M104.817 47.8044L101.685 51.378C100.998 52.1623 100.572 53.1419 100.466 54.1802C100.419 54.6517 100.438 55.1276 100.524 55.5937L101.704 62.0213L102.591 71.3037C102.591 71.3037 109.44 73.3825 110.141 70.1724C110.843 66.9624 104.817 47.8044 104.817 47.8044Z" fill="#734636"/>
<path d="M107.757 72.1761C112.26 71.4245 113.362 71.2752 113.431 71.249L113.5 71.2227L113.049 68.51L111.143 63.8193C111.019 62.2849 110.217 60.2059 110.676 58.536C112.011 53.6816 109.842 46.8216 108.85 46.2961L106.1 44.4905L105.135 45.3769L103.462 47.7236C102.085 53.8676 101.134 59.5942 101.18 59.9442L102.03 65.9591L103.031 68.2664C106.069 69.7347 104.026 72.7988 107.757 72.1761Z" fill="#260F0F"/>
<path d="M99.6055 67.7634L92.536 65.8688L91.9135 65.7209L91.4697 65.6153L90.9525 65.4928L90.9483 65.4919C90.8732 65.4747 90.7943 65.4878 90.7287 65.5285L88.1038 68.681C88.08 68.6957 88.0591 68.7145 88.042 68.7366C88.035 68.7423 88.0287 68.7489 88.0233 68.7563C87.9943 68.796 87.9754 68.8422 87.9684 68.8909C87.9614 68.9396 87.9665 68.9893 87.9832 69.0356C87.9998 69.0819 88.0276 69.1234 88.0641 69.1564C88.1005 69.1894 88.1445 69.2129 88.1922 69.2249L98.7384 71.656C98.7931 71.6684 98.8501 71.665 98.9029 71.6464C98.9558 71.6277 99.0022 71.5944 99.037 71.5504L99.144 71.4115L99.7276 68.5963L99.7692 68.2308C99.7956 68.197 99.8143 68.1577 99.8239 68.1158C99.8408 68.0401 99.8275 67.9608 99.7866 67.8949C99.7458 67.829 99.6807 67.7818 99.6055 67.7634Z" fill="#E6E6E6"/>
<path opacity="0.17" d="M99.144 71.4112L99.0364 71.5506C99.0017 71.5945 98.9553 71.6277 98.9027 71.6464C98.85 71.665 98.7931 71.6684 98.7386 71.6562L88.192 69.225C88.1443 69.2131 88.1003 69.1896 88.0639 69.1566C88.0274 69.1236 87.9996 69.0822 87.983 69.0359C87.9663 68.9896 87.9613 68.9399 87.9684 68.8913C87.9754 68.8426 87.9943 68.7964 88.0234 68.7567C88.0285 68.7493 88.0348 68.7426 88.0419 68.737L99.144 71.4112Z" fill="#260F0F"/>
<path d="M91.005 65.4723L91.1958 52.0045C91.2038 51.9234 91.1793 51.8424 91.1277 51.7794L89.7763 48.962L89.636 48.7912C89.5838 48.7287 89.5092 48.6892 89.4283 48.6812L89.1341 48.6537C89.0531 48.6457 88.9722 48.6703 88.9093 48.7221C88.8464 48.7738 88.8066 48.8485 88.7986 48.9297L88.5337 63.1796L88.5335 63.1807L88.4022 64.5527L88.2467 66.182L88.2462 66.1841L88.0035 68.719C87.9989 68.7624 88.0038 68.8062 88.0179 68.8475C88.0319 68.8887 88.0547 68.9265 88.0847 68.958C88.1139 68.99 88.1496 69.0154 88.1895 69.0325C88.2293 69.0495 88.2723 69.0579 88.3156 69.0571L88.507 69.0532C88.5804 69.0513 88.6507 69.0235 88.7057 68.9747L88.8127 68.8783L88.8623 68.8331L90.9035 65.6724C90.9614 65.621 90.9977 65.5494 91.005 65.4723Z" fill="#E6E6E6"/>
<path opacity="0.17" d="M89.7759 48.962L88.8626 68.8336L88.8127 68.8782L88.706 68.9743C88.6511 69.0232 88.5806 69.0511 88.5071 69.0529L88.3155 69.0568C88.2721 69.0575 88.2291 69.049 88.1892 69.032C88.1494 69.0149 88.1135 68.9896 88.0841 68.9577C88.0546 68.9259 88.0322 68.8881 88.0183 68.847C88.0045 68.8058 87.9994 68.7622 88.0035 68.719L88.799 48.9301C88.8068 48.8488 88.8465 48.774 88.9093 48.7221C88.9721 48.6702 89.0529 48.6454 89.134 48.6531L89.4288 48.6814C89.4688 48.6851 89.5077 48.6967 89.5431 48.7156C89.5786 48.7345 89.61 48.7603 89.6354 48.7915L89.7759 48.962Z" fill="#260F0F"/>
<path d="M89.6992 49.765L90.9351 52.8208L90.7822 61.9624L89.4442 63.9007L89.6992 49.765Z" fill="#734636"/>
<path d="M98.7908 67.6827C98.8585 67.7021 98.9157 67.7475 98.9499 67.809C98.9841 67.8706 98.9925 67.9432 98.9733 68.011L98.4288 70.2839L97.9187 70.1384L98.4631 67.8655C98.4824 67.7977 98.5278 67.7404 98.5892 67.7062C98.6507 67.6719 98.7232 67.6635 98.7908 67.6827Z" fill="#260F0F"/>
<path d="M97.7703 67.3917C97.838 67.411 97.8952 67.4565 97.9294 67.518C97.9636 67.5796 97.972 67.6522 97.9528 67.72L97.8366 68.1288L97.3264 67.9833L97.4426 67.5745C97.4619 67.5067 97.5073 67.4494 97.5687 67.4152C97.6302 67.3809 97.7027 67.3725 97.7703 67.3917Z" fill="#260F0F"/>
<path d="M96.7501 67.1007C96.8177 67.12 96.8749 67.1655 96.9091 67.227C96.9433 67.2886 96.9517 67.3612 96.9325 67.429L96.8163 67.8378L96.3061 67.6923L96.4224 67.2835C96.4416 67.2157 96.487 67.1584 96.5484 67.1241C96.6099 67.0899 96.6824 67.0814 96.7501 67.1007Z" fill="#260F0F"/>
<path d="M95.7298 66.8097C95.7974 66.829 95.8547 66.8744 95.8889 66.936C95.9231 66.9976 95.9315 67.0702 95.9122 67.138L95.796 67.5468L95.2859 67.4013L95.4021 66.9925C95.4214 66.9247 95.4667 66.8674 95.5282 66.8331C95.5896 66.7988 95.6622 66.7904 95.7298 66.8097Z" fill="#260F0F"/>
<path d="M94.7095 66.5187C94.7772 66.538 94.8344 66.5834 94.8686 66.645C94.9028 66.7065 94.9112 66.7792 94.892 66.847L94.7758 67.2558L94.2656 67.1103L94.3818 66.7014C94.4011 66.6337 94.4465 66.5764 94.5079 66.5421C94.5694 66.5078 94.6419 66.4994 94.7095 66.5187Z" fill="#260F0F"/>
<path d="M93.6893 66.2277C93.7569 66.247 93.8141 66.2924 93.8483 66.354C93.8825 66.4155 93.891 66.4882 93.8717 66.5559L93.7555 66.9648L93.2454 66.8192L93.3616 66.4104C93.3809 66.3427 93.4262 66.2854 93.4877 66.2511C93.5491 66.2168 93.6216 66.2084 93.6893 66.2277Z" fill="#260F0F"/>
<path d="M92.669 65.9366C92.7366 65.956 92.7939 66.0014 92.8281 66.063C92.8623 66.1245 92.8707 66.1972 92.8515 66.2649L92.7352 66.6737L92.2251 66.5282L92.3413 66.1194C92.3606 66.0517 92.4059 65.9943 92.4674 65.9601C92.5288 65.9258 92.6014 65.9174 92.669 65.9366Z" fill="#260F0F"/>
<path d="M91.6485 65.6456C91.7161 65.665 91.7733 65.7104 91.8076 65.7719C91.8418 65.8335 91.8502 65.9061 91.8309 65.9739L91.7147 66.3827L91.2046 66.2372L91.3208 65.8284C91.3401 65.7606 91.3854 65.7033 91.4469 65.6691C91.5083 65.6348 91.5809 65.6264 91.6485 65.6456Z" fill="#260F0F"/>
<path d="M97.5562 68.3238C97.6239 68.3431 97.6811 68.3885 97.7153 68.4501C97.7495 68.5116 97.7579 68.5843 97.7387 68.6521L97.6225 69.0609L97.1123 68.9154L97.2285 68.5066C97.2478 68.4388 97.2931 68.3815 97.3546 68.3472C97.416 68.3129 97.4886 68.3045 97.5562 68.3238Z" fill="#260F0F"/>
<path d="M96.536 68.0328C96.6036 68.0521 96.6608 68.0975 96.695 68.1591C96.7292 68.2206 96.7376 68.2933 96.7184 68.361L96.6022 68.7699L96.092 68.6244L96.2082 68.2155C96.2275 68.1478 96.2729 68.0905 96.3343 68.0562C96.3958 68.0219 96.4683 68.0135 96.536 68.0328Z" fill="#260F0F"/>
<path d="M95.5157 67.7418C95.5833 67.7611 95.6405 67.8065 95.6747 67.8681C95.709 67.9296 95.7174 68.0023 95.6981 68.07L95.5819 68.4788L95.0718 68.3333L95.188 67.9245C95.2073 67.8568 95.2526 67.7995 95.3141 67.7652C95.3755 67.7309 95.448 67.7225 95.5157 67.7418Z" fill="#260F0F"/>
<path d="M94.4954 67.4507C94.5631 67.47 94.6203 67.5154 94.6545 67.577C94.6887 67.6385 94.6971 67.7112 94.6779 67.7789L94.5617 68.1878L94.0515 68.0423L94.1677 67.6334C94.187 67.5657 94.2324 67.5084 94.2938 67.4741C94.3553 67.4398 94.4278 67.4314 94.4954 67.4507Z" fill="#260F0F"/>
<path d="M93.4752 67.1597C93.5428 67.179 93.6 67.2244 93.6342 67.286C93.6684 67.3475 93.6768 67.4202 93.6576 67.4879L93.5414 67.8968L93.0312 67.7513L93.1475 67.3424C93.1667 67.2747 93.2121 67.2174 93.2735 67.1831C93.335 67.1488 93.4075 67.1404 93.4752 67.1597Z" fill="#260F0F"/>
<path d="M92.4549 66.8687C92.5225 66.888 92.5797 66.9334 92.614 66.995C92.6482 67.0565 92.6566 67.1292 92.6373 67.1969L92.5211 67.6057L92.011 67.4602L92.1272 67.0514C92.1465 66.9837 92.1918 66.9264 92.2533 66.8921C92.3147 66.8578 92.3873 66.8494 92.4549 66.8687Z" fill="#260F0F"/>
<path d="M91.4344 66.5776C91.502 66.597 91.5592 66.6424 91.5934 66.7039C91.6277 66.7655 91.6361 66.8381 91.6168 66.9059L91.5006 67.3147L90.9905 67.1692L91.1067 66.7604C91.126 66.6926 91.1713 66.6353 91.2328 66.6011C91.2942 66.5668 91.3667 66.5584 91.4344 66.5776Z" fill="#260F0F"/>
<path d="M97.3421 69.2558C97.4097 69.2751 97.467 69.3206 97.5012 69.3821C97.5354 69.4437 97.5438 69.5163 97.5246 69.5841L97.4083 69.9929L96.8982 69.8474L97.0144 69.4386C97.0337 69.3708 97.079 69.3135 97.1405 69.2792C97.2019 69.245 97.2745 69.2365 97.3421 69.2558Z" fill="#260F0F"/>
<path d="M96.3218 68.9648C96.3895 68.9841 96.4467 69.0295 96.4809 69.0911C96.5151 69.1526 96.5235 69.2253 96.5043 69.2931L96.3881 69.7019L95.8779 69.5564L95.9941 69.1475C96.0134 69.0798 96.0588 69.0225 96.1202 68.9882C96.1817 68.9539 96.2542 68.9455 96.3218 68.9648Z" fill="#260F0F"/>
<path d="M95.3016 68.6738C95.3692 68.6931 95.4264 68.7385 95.4606 68.8001C95.4949 68.8616 95.5033 68.9343 95.484 69.002L95.3678 69.4109L94.8577 69.2654L94.9739 68.8565C94.9932 68.7888 95.0385 68.7315 95.1 68.6972C95.1614 68.6629 95.2339 68.6545 95.3016 68.6738Z" fill="#260F0F"/>
<path d="M94.2813 68.3828C94.349 68.4021 94.4062 68.4475 94.4404 68.5091C94.4746 68.5706 94.483 68.6433 94.4638 68.711L94.3476 69.1198L93.8374 68.9743L93.9536 68.5655C93.9729 68.4978 94.0182 68.4404 94.0797 68.4062C94.1411 68.3719 94.2137 68.3635 94.2813 68.3828Z" fill="#260F0F"/>
<path d="M93.2611 68.0917C93.3287 68.1111 93.3859 68.1565 93.4201 68.218C93.4543 68.2796 93.4627 68.3522 93.4435 68.42L93.3273 68.8288L92.8171 68.6833L92.9333 68.2745C92.9526 68.2067 92.998 68.1494 93.0594 68.1152C93.1209 68.0809 93.1934 68.0725 93.2611 68.0917Z" fill="#260F0F"/>
<path d="M92.2405 67.8007C92.3082 67.82 92.3654 67.8655 92.3996 67.927C92.4338 67.9886 92.4422 68.0612 92.423 68.129L92.3068 68.5378L91.7966 68.3923L91.9128 67.9835C91.9321 67.9157 91.9775 67.8584 92.0389 67.8242C92.1004 67.7899 92.1729 67.7815 92.2405 67.8007Z" fill="#260F0F"/>
<path d="M91.2203 67.5097C91.2879 67.529 91.3451 67.5745 91.3793 67.636C91.4135 67.6976 91.422 67.7702 91.4027 67.838L91.2865 68.2468L90.7764 68.1013L90.8926 67.6925C90.9119 67.6247 90.9572 67.5674 91.0187 67.5331C91.0801 67.4989 91.1526 67.4904 91.2203 67.5097Z" fill="#260F0F"/>
<path d="M94.2181 65.7459C94.3549 65.5402 94.5351 65.3671 94.746 65.2387C94.9568 65.1103 95.1932 65.0298 95.4385 65.0028C95.6838 64.9759 95.932 65.0031 96.1656 65.0826C96.3993 65.1622 96.6127 65.292 96.7908 65.4631L100.323 63.9117L101.788 65.8322L96.7687 67.9528C96.462 68.2335 96.0631 68.3917 95.6477 68.3975C95.2323 68.4033 94.8292 68.2562 94.5148 67.9842C94.2004 67.7122 93.9965 67.3341 93.9418 66.9215C93.8871 66.509 93.9854 66.0907 94.2181 65.7459Z" fill="#FFB6B6"/>
<path d="M103.318 66.8259C105.067 66.5802 107.288 65.2206 109.818 62.8367C109.959 62.7061 110.072 62.5475 110.149 62.371C110.226 62.1944 110.265 62.0038 110.265 61.8112C110.288 60.4675 108.759 58.8703 108.609 58.7175L106.745 55.205C106.721 55.147 106.063 53.6064 104.894 53.1896C104.648 53.1041 104.387 53.0729 104.128 53.0981C103.869 53.1233 103.619 53.2043 103.394 53.3357C101.426 54.3838 103.864 59.9972 104.194 60.732L101.628 62.4138L100.039 63.7733L97.6849 64.3597L98.7551 67.276L102.395 66.8474C102.703 66.8784 103.013 66.8712 103.318 66.8259Z" fill="#260F0F"/>
<path d="M99.8704 40.2568C99.5757 37.7929 101.287 35.5614 103.693 35.2726C106.099 34.9838 108.289 36.7471 108.584 39.211C108.878 41.6749 107.167 43.9064 104.761 44.1952C102.355 44.4839 100.165 42.7207 99.8704 40.2568Z" fill="#FFB6B6"/>
<path d="M115.653 36.3999C114.809 35.6237 114.32 34.5183 113.61 33.607C112.901 32.6958 111.766 31.9402 110.705 32.2994C109.973 32.5471 109.473 33.2798 109.268 34.0544C109.063 34.8289 109.105 35.6509 109.149 36.4558C108.971 34.8121 107.701 33.3504 106.151 33.0051C104.601 32.6599 102.892 33.4577 102.115 34.8886C101.662 34.5589 101.104 34.4072 100.546 34.4622C99.9891 34.5173 99.4713 34.7752 99.0912 35.1871C98.3449 36.0358 98.3303 37.4823 99.0592 38.363C99.788 39.2438 101.162 39.4396 102.075 38.793L102.459 39.0697C102.346 39.7742 102.819 40.5334 103.484 40.7138C104.022 40.86 104.744 40.7383 105.001 41.2555C105.18 41.6168 104.977 42.0498 104.745 42.3719C104.512 42.694 104.231 43.0316 104.247 43.4368C104.271 44.0483 104.946 44.3975 105.529 44.4571C106.936 44.6009 108.379 43.7833 109.024 42.4779C109.036 42.4528 109.05 42.4274 109.065 42.4018C109.44 41.7814 109.685 41.0909 109.784 40.3726C109.884 39.6542 109.836 38.923 109.644 38.2237C109.566 37.9493 109.586 37.7358 109.771 37.6464C110.569 37.2601 112.973 37.5813 113.744 38.0399C114.514 38.4985 115.166 39.1496 115.915 39.6464C116.664 40.1431 117.583 40.4852 118.428 40.2242C119.104 40.015 119.632 39.4417 119.955 38.7877C120.278 38.1338 120.421 37.3996 120.541 36.6726C119.118 37.7407 116.982 37.6215 115.653 36.3999Z" fill="#260F0F"/>
<path d="M0.257416 5.03364H66.4571C66.526 5.03217 66.5915 5.00374 66.6397 4.95444C66.6879 4.90515 66.7148 4.83891 66.7148 4.76993C66.7148 4.70095 66.6879 4.63471 66.6397 4.58542C66.5915 4.53612 66.526 4.50769 66.4571 4.50623H0.257416C0.188567 4.50769 0.123029 4.53612 0.0748561 4.58542C0.0266829 4.63471 -0.000298734 4.70095 -0.000298734 4.76993C-0.000298734 4.83891 0.0266829 4.90515 0.0748561 4.95444C0.123029 5.00374 0.188567 5.03217 0.257416 5.03364Z" fill="#D9D1BA"/>
<path d="M61.9508 3.15977C61.0988 3.15977 60.408 2.45243 60.408 1.57988C60.408 0.707339 61.0988 0 61.9508 0C62.8029 0 63.4937 0.707339 63.4937 1.57988C63.4937 2.45243 62.8029 3.15977 61.9508 3.15977Z" fill="#260F0F"/>
<path d="M56.6212 3.15977C55.7692 3.15977 55.0784 2.45243 55.0784 1.57988C55.0784 0.707339 55.7692 0 56.6212 0C57.4733 0 58.1641 0.707339 58.1641 1.57988C58.1641 2.45243 57.4733 3.15977 56.6212 3.15977Z" fill="#260F0F"/>
<path d="M51.2914 3.15977C50.4393 3.15977 49.7486 2.45243 49.7486 1.57988C49.7486 0.707339 50.4393 0 51.2914 0C52.1435 0 52.8342 0.707339 52.8342 1.57988C52.8342 2.45243 52.1435 3.15977 51.2914 3.15977Z" fill="#260F0F"/>
<path d="M3.46647 0.391602H7.25243C7.32747 0.393098 7.39893 0.42401 7.45147 0.477699C7.50401 0.531388 7.53345 0.603573 7.53345 0.678756C7.53345 0.753939 7.50401 0.826124 7.45147 0.879812C7.39893 0.933501 7.32747 0.964413 7.25243 0.96591H3.46647C3.39143 0.964413 3.31997 0.933501 3.26743 0.879812C3.21489 0.826124 3.18546 0.753939 3.18546 0.678756C3.18546 0.603573 3.21489 0.531388 3.26743 0.477699C3.31997 0.42401 3.39143 0.393098 3.46647 0.391602Z" fill="#260F0F"/>
<path d="M3.46647 1.46948H7.25243C7.32747 1.47098 7.39893 1.50189 7.45147 1.55558C7.50401 1.60927 7.53345 1.68145 7.53345 1.75664C7.53345 1.83182 7.50401 1.904 7.45147 1.95769C7.39893 2.01138 7.32747 2.04229 7.25243 2.04379H3.46647C3.39143 2.04229 3.31997 2.01138 3.26743 1.95769C3.21489 1.904 3.18546 1.83182 3.18546 1.75664C3.18546 1.68145 3.21489 1.60927 3.26743 1.55558C3.31997 1.50189 3.39143 1.47098 3.46647 1.46948Z" fill="#260F0F"/>
<path d="M3.46643 2.54596H7.25239C7.32744 2.54745 7.39891 2.57835 7.45146 2.63204C7.50401 2.68573 7.53345 2.75792 7.53345 2.83311C7.53345 2.9083 7.50401 2.98049 7.45146 3.03418C7.39891 3.08787 7.32744 3.11878 7.25239 3.12027H3.46643C3.39139 3.11878 3.31991 3.08787 3.26737 3.03418C3.21482 2.98049 3.18539 2.9083 3.18539 2.83311C3.18539 2.75792 3.21482 2.68573 3.26737 2.63204C3.31991 2.57835 3.39139 2.54745 3.46643 2.54596Z" fill="#260F0F"/>
<path d="M116.317 65.6431L116.315 65.6401L116.317 65.6461V65.6431Z" fill="#260F0F"/>
<path d="M25.3768 15.3099C24.3234 15.3099 23.4694 14.4544 23.4694 13.3992C23.4694 12.344 24.3234 11.4886 25.3768 11.4886C26.4302 11.4886 27.2842 12.344 27.2842 13.3992C27.2842 14.4544 26.4302 15.3099 25.3768 15.3099Z" fill="#D9D1BA"/>
<path d="M9.30063 17.63H26.7163C26.7909 17.6301 26.8649 17.6155 26.9339 17.587C27.0029 17.5584 27.0656 17.5165 27.1185 17.4637C27.1713 17.4109 27.2132 17.3481 27.2418 17.279C27.2704 17.2099 27.2852 17.1359 27.2852 17.0611C27.2852 16.9863 27.2704 16.9122 27.2418 16.8431C27.2132 16.774 27.1713 16.7113 27.1185 16.6584C27.0656 16.6056 27.0029 16.5637 26.9339 16.5352C26.8649 16.5066 26.7909 16.492 26.7163 16.4921H9.30063C9.22597 16.492 9.15201 16.5066 9.08299 16.5352C9.01398 16.5637 8.95125 16.6056 8.89841 16.6584C8.84558 16.7113 8.80366 16.774 8.77506 16.8431C8.74646 16.9122 8.73174 16.9863 8.73174 17.0611C8.73174 17.1359 8.74646 17.2099 8.77506 17.279C8.80366 17.3481 8.84558 17.4109 8.89841 17.4637C8.95125 17.5165 9.01398 17.5584 9.08299 17.587C9.15201 17.6155 9.22597 17.6301 9.30063 17.63Z" fill="#D9D1BA"/>
<path d="M22.3907 19.8783H26.7162C26.8668 19.8783 27.0113 19.8183 27.1178 19.7116C27.2243 19.6049 27.2842 19.4602 27.2842 19.3093C27.2842 19.1584 27.2243 19.0136 27.1178 18.9069C27.0113 18.8002 26.8668 18.7403 26.7162 18.7403H22.3907C22.24 18.7403 22.0955 18.8002 21.989 18.9069C21.8825 19.0136 21.8226 19.1584 21.8226 19.3093C21.8226 19.4602 21.8825 19.6049 21.989 19.7116C22.0955 19.8183 22.24 19.8783 22.3907 19.8783Z" fill="#D9D1BA"/>
<path d="M25.3768 45.1319C24.3234 45.1319 23.4694 44.2765 23.4694 43.2213C23.4694 42.1661 24.3234 41.3107 25.3768 41.3107C26.4302 41.3107 27.2842 42.1661 27.2842 43.2213C27.2842 44.2765 26.4302 45.1319 25.3768 45.1319Z" fill="#D9D1BA"/>
<path d="M9.30056 47.4521H26.7162C26.8668 47.4521 27.0113 47.3922 27.1178 47.2855C27.2243 47.1788 27.2842 47.0341 27.2842 46.8832C27.2842 46.7323 27.2243 46.5875 27.1178 46.4808C27.0113 46.3741 26.8668 46.3142 26.7162 46.3142H9.30056C9.14992 46.3142 9.00546 46.3741 8.89894 46.4808C8.79242 46.5875 8.73258 46.7323 8.73258 46.8832C8.73258 47.0341 8.79242 47.1788 8.89894 47.2855C9.00546 47.3922 9.14992 47.4521 9.30056 47.4521Z" fill="#D9D1BA"/>
<path d="M22.3907 49.7003H26.7162C26.8668 49.7003 27.0113 49.6404 27.1178 49.5337C27.2243 49.427 27.2842 49.2823 27.2842 49.1314C27.2842 48.9805 27.2243 48.8357 27.1178 48.729C27.0113 48.6223 26.8668 48.5624 26.7162 48.5624H22.3907C22.24 48.5624 22.0955 48.6223 21.989 48.729C21.8825 48.8357 21.8226 48.9805 21.8226 49.1314C21.8226 49.2823 21.8825 49.427 21.989 49.5337C22.0955 49.6404 22.24 49.7003 22.3907 49.7003Z" fill="#D9D1BA"/>
<path d="M56.0748 40.6064C55.0214 40.6064 54.1674 39.751 54.1674 38.6958C54.1674 37.6406 55.0214 36.7852 56.0748 36.7852C57.1282 36.7852 57.9822 37.6406 57.9822 38.6958C57.9822 39.751 57.1282 40.6064 56.0748 40.6064Z" fill="#D9D1BA"/>
<path d="M39.9986 42.9266H57.4142C57.5648 42.9266 57.7093 42.8667 57.8158 42.76C57.9223 42.6533 57.9822 42.5085 57.9822 42.3576C57.9822 42.2068 57.9223 42.062 57.8158 41.9553C57.7093 41.8486 57.5648 41.7887 57.4142 41.7887H39.9986C39.8479 41.7887 39.7035 41.8486 39.5969 41.9553C39.4904 42.062 39.4306 42.2068 39.4306 42.3576C39.4306 42.5085 39.4904 42.6533 39.5969 42.76C39.7035 42.8667 39.8479 42.9266 39.9986 42.9266Z" fill="#D9D1BA"/>
<path d="M53.0886 45.1748H57.4142C57.5648 45.1748 57.7093 45.1149 57.8158 45.0082C57.9223 44.9015 57.9822 44.7567 57.9822 44.6058C57.9822 44.4549 57.9223 44.3102 57.8158 44.2035C57.7093 44.0968 57.5648 44.0369 57.4142 44.0369H53.0886C52.938 44.0369 52.7935 44.0968 52.687 44.2035C52.5805 44.3102 52.5206 44.4549 52.5206 44.6058C52.5206 44.7567 52.5805 44.9015 52.687 45.0082C52.7935 45.1149 52.938 45.1748 53.0886 45.1748Z" fill="#D9D1BA"/>
<path d="M25.3768 29.0968C24.3234 29.0968 23.4694 28.2414 23.4694 27.1862C23.4694 26.1309 24.3234 25.2755 25.3768 25.2755C26.4302 25.2755 27.2842 26.1309 27.2842 27.1862C27.2842 28.2414 26.4302 29.0968 25.3768 29.0968Z" fill="#D9D1BA"/>
<path d="M9.30056 31.417H26.7162C26.8668 31.417 27.0113 31.357 27.1178 31.2503C27.2243 31.1436 27.2842 30.9989 27.2842 30.848C27.2842 30.6971 27.2243 30.5524 27.1178 30.4457C27.0113 30.339 26.8668 30.2791 26.7162 30.2791H9.30056C9.14992 30.2791 9.00546 30.339 8.89894 30.4457C8.79242 30.5524 8.73258 30.6971 8.73258 30.848C8.73258 30.9989 8.79242 31.1436 8.89894 31.2503C9.00546 31.357 9.14992 31.417 9.30056 31.417Z" fill="#D9D1BA"/>
<path d="M16.251 33.6652H26.7162C26.8668 33.6652 27.0113 33.6052 27.1178 33.4985C27.2243 33.3918 27.2842 33.2471 27.2842 33.0962C27.2842 32.9453 27.2243 32.8006 27.1178 32.6939C27.0113 32.5872 26.8668 32.5272 26.7162 32.5272H16.251C16.1004 32.5272 15.9559 32.5872 15.8494 32.6939C15.7429 32.8006 15.683 32.9453 15.683 33.0962C15.683 33.2471 15.7429 33.3918 15.8494 33.4985C15.9559 33.6052 16.1004 33.6652 16.251 33.6652Z" fill="#D9D1BA"/>
<path d="M19.1669 35.9134H26.7162C26.8668 35.9134 27.0113 35.8535 27.1178 35.7468C27.2243 35.6401 27.2842 35.4953 27.2842 35.3444C27.2842 35.1935 27.2243 35.0488 27.1178 34.9421C27.0113 34.8354 26.8668 34.7755 26.7162 34.7755H19.1669C19.0163 34.7755 18.8718 34.8354 18.7653 34.9421C18.6587 35.0488 18.5989 35.1935 18.5989 35.3444C18.5989 35.4953 18.6587 35.6401 18.7653 35.7468C18.8718 35.8535 19.0163 35.9134 19.1669 35.9134Z" fill="#D9D1BA"/>
<path d="M42.7671 14.7703V34.8304C42.7672 34.9704 42.8228 35.1046 42.9215 35.2036C43.0203 35.3027 43.1542 35.3585 43.2939 35.3589H53.8457C55.0131 34.2745 55.9708 32.9837 56.6708 31.5513C56.7168 31.459 56.7607 31.366 56.8025 31.2716C57.4403 29.8853 57.8264 28.3962 57.9426 26.8743C57.9505 26.7805 57.957 26.6875 57.9613 26.5931C57.9757 26.3515 57.9822 26.1064 57.9822 25.8605C57.9843 24.2241 57.6758 22.6021 57.0731 21.0811C57.0371 20.9866 56.999 20.8929 56.9594 20.7999C56.1659 18.931 54.9458 17.2745 53.3973 15.9635C53.3051 15.8849 53.2121 15.8085 53.118 15.7342L53.0964 15.7169C51.8846 14.7559 50.3831 14.2353 48.8376 14.2403H43.294C43.154 14.2408 43.0199 14.2968 42.9211 14.3962C42.8223 14.4955 42.7669 14.6301 42.7671 14.7703Z" fill="#734636"/>
<path opacity="0.2" d="M42.7391 21.0811V20.7999H47.445V14.2404H47.7249V20.7999H53.1181V15.7343C53.2124 15.8085 53.3055 15.8849 53.3974 15.9635V20.7999H56.9595C56.9991 20.8929 57.0372 20.9867 57.0732 21.0811H53.3974V26.5931H57.9614C57.9571 26.6875 57.9506 26.7805 57.9427 26.8743H53.3974V31.2716H56.8026C56.7609 31.366 56.717 31.4591 56.6709 31.5513H53.3974V35.2478H53.1181V31.5513H47.7249V35.2478H47.445V31.5513H42.7391V31.2716H47.445C47.4451 30.6941 47.3316 30.1222 47.111 29.5887C46.8905 29.0551 46.5671 28.5703 46.1595 28.162C45.7518 27.7536 45.2678 27.4297 44.7352 27.2088C44.2025 26.9878 43.6316 26.8742 43.0551 26.8743H42.7391V26.5931H47.445V21.0811H42.7391ZM47.7249 31.2716H53.1181V26.8743H47.7249V31.2716ZM47.7249 26.5931H53.1181V26.4828C53.1181 25.7734 52.9785 25.0709 52.7075 24.4155C52.4364 23.7602 52.0392 23.1647 51.5384 22.6631C51.0376 22.1615 50.443 21.7636 49.7887 21.4922C49.1344 21.2207 48.4331 21.0811 47.7249 21.0811V26.5931Z" fill="#260F0F"/>
<path d="M43.2698 31.3424C43.3826 31.3476 43.4943 31.318 43.5897 31.2575C43.6851 31.1969 43.7596 31.1085 43.8032 31.0041C43.8468 30.8998 43.8573 30.7845 43.8332 30.674C43.8092 30.5634 43.7519 30.4629 43.6689 30.3862C43.655 30.3309 43.6451 30.2911 43.6312 30.2358C43.6362 30.2238 43.6412 30.2118 43.6462 30.1998C44.1533 28.9886 47.389 32.365 47.5289 33.5033C47.5905 34.0065 47.5645 34.5165 47.4521 35.0108C48.5002 32.7206 49.0445 30.2314 49.048 27.712C49.0482 27.0797 49.0131 26.448 48.9429 25.8197C48.8849 25.3046 48.8044 24.7932 48.7015 24.2855C48.1397 21.5306 46.9336 18.9484 45.1821 16.7511C44.1805 16.8071 43.3026 16.6543 43.2179 14.7097C43.2028 14.3638 42.9467 14.0643 42.8902 13.7235C42.9859 13.7361 43.0831 13.744 43.1787 13.7502C43.2085 13.7518 43.2398 13.7534 43.2696 13.7549L43.2808 13.7554C43.3859 13.7602 43.4902 13.7344 43.581 13.6811C43.6718 13.6279 43.7453 13.5495 43.7926 13.4554C43.84 13.3613 43.8592 13.2555 43.8479 13.1507C43.8366 13.046 43.7953 12.9467 43.729 12.8649C43.6877 12.814 43.6464 12.7631 43.6051 12.7123C43.5424 12.6337 43.4781 12.5568 43.4154 12.4783C43.4082 12.4708 43.4014 12.4629 43.395 12.4547C43.3229 12.3652 43.2508 12.2773 43.1787 12.1878C43.3103 11.9831 43.4874 11.8117 43.696 11.6868C44.4187 11.2629 45.4157 11.5565 45.9377 12.2113C46.4613 12.8661 46.5601 13.7848 46.3783 14.6029C46.1994 15.2991 45.9036 15.9597 45.5035 16.5564C45.5427 16.6066 45.5835 16.6553 45.6226 16.7056C46.3391 17.6284 46.9635 18.6193 47.4869 19.6641C47.3388 18.5053 49.1498 14.3205 49.8502 13.4341C50.6914 12.3694 52.4165 12.834 52.5647 14.1837C52.5661 14.1968 52.5675 14.2098 52.5689 14.2229C52.4649 14.2817 52.363 14.3441 52.2634 14.4101C52.1382 14.4939 52.0413 14.6135 51.9852 14.7535C51.9291 14.8934 51.9165 15.047 51.949 15.1942C51.9816 15.3415 52.0578 15.4754 52.1676 15.5785C52.2775 15.6816 52.4159 15.749 52.5646 15.772L52.5799 15.7744C53.9723 17.7659 49.5084 22.9494 48.3911 21.7856C48.917 23.2785 49.2469 24.8336 49.3725 26.4117C49.4435 27.3428 49.4393 28.2781 49.3599 29.2085L49.3646 29.1755C49.6129 27.1491 53.8719 24.1363 55.1157 24.3872C55.8321 24.5318 56.5378 24.4989 56.429 25.2229C56.4273 25.2344 56.4255 25.246 56.4237 25.2575C56.2307 25.3363 56.0427 25.427 55.861 25.5292C55.7569 25.588 55.6551 25.6504 55.5555 25.7164C55.4303 25.8002 55.3333 25.9198 55.2772 26.0598C55.2211 26.1997 55.2085 26.3533 55.2411 26.5006C55.2737 26.6478 55.3499 26.7817 55.4597 26.8848C55.5696 26.9879 55.7079 27.0554 55.8567 27.0783L55.8719 27.0807C55.8829 27.0823 55.8923 27.0838 55.9033 27.0854C56.5371 29.27 51.8366 32.7957 48.979 31.6739H48.9774C48.6942 32.9066 48.2839 34.1065 47.7531 35.2542H43.3794C43.3637 35.2055 43.3496 35.1553 43.3354 35.1066C43.7403 35.1321 44.1467 35.1078 44.5457 35.0344C44.2212 34.6355 43.8967 34.2335 43.5722 33.8346C43.5649 33.8272 43.5581 33.8193 43.5518 33.8111C43.3872 33.6069 43.221 33.4044 43.0564 33.2002L43.0563 33.2C43.0476 32.5742 43.1192 31.9499 43.2696 31.3425L43.2698 31.3424ZM48.2782 21.4731L48.276 21.47L48.2782 21.4762V21.4731ZM49.2471 30.2213L49.2847 30.1365C49.2831 30.0753 49.2831 30.014 49.2847 29.9512C49.2847 29.9339 49.2878 29.9167 49.2878 29.8994C49.2737 30.0078 49.2612 30.1161 49.2455 30.2245L49.2471 30.2213Z" fill="#260F0F"/>
</g>
<defs>
<clipPath id="clip0_189_911">
<rect width="126" height="100" fill="white" transform="matrix(-1 0 0 1 126 0)"/>
</clipPath>
</defs>
</svg>
