<svg width="104" height="100" viewBox="0 0 104 100" fill="none" xmlns="http://www.w3.org/2000/svg">
<g clip-path="url(#clip0_189_982)">
<path d="M43.4825 49.9839L47.2966 56.5612L51.1091 63.1384H35.8555L39.669 56.5612L43.4825 49.9839Z" fill="#734636"/>
<path d="M21.8119 37.0656H5.8186V52.9911H21.8119V37.0656Z" fill="#D9D1BA"/>
<path d="M33.2761 26.9183C38.9431 26.9183 43.5372 22.3437 43.5372 16.7007C43.5372 11.0576 38.9431 6.48303 33.2761 6.48303C27.609 6.48303 23.0149 11.0576 23.0149 16.7007C23.0149 22.3437 27.609 26.9183 33.2761 26.9183Z" fill="#734636"/>
<path d="M104 99.8591H59.8413V100H104V99.8591Z" fill="#E6E6E6"/>
<path d="M35.8239 28.1868C33.0246 28.1868 30.2882 27.3602 27.9606 25.8116C25.6331 24.263 23.819 22.0619 22.7478 19.4867C21.6765 16.9114 21.3963 14.0777 21.9424 11.3438C22.4885 8.60997 23.8365 6.09876 25.8159 4.12776C27.7953 2.15675 30.3172 0.814485 33.0627 0.270686C35.8082 -0.273113 38.654 0.00598389 41.2402 1.07268C43.8264 2.13938 46.0368 3.94577 47.5921 6.26343C49.1473 8.58108 49.9773 11.3059 49.9773 14.0933C49.9773 17.8311 48.4862 21.4159 45.8319 24.0589C43.1776 26.7019 39.5776 28.1868 35.8239 28.1868ZM35.8239 0.281857C33.0806 0.281882 30.3989 1.09193 28.118 2.60957C25.8371 4.12721 24.0593 6.28428 23.0095 8.80799C21.9597 11.3317 21.685 14.1087 22.2202 16.7879C22.7554 19.467 24.0765 21.928 26.0163 23.8596C27.9561 25.7911 30.4275 27.1065 33.1181 27.6394C35.8087 28.1723 38.5975 27.8988 41.132 26.8534C43.6664 25.8081 45.8327 24.0378 47.3567 21.7666C48.8808 19.4953 49.6943 16.825 49.6943 14.0933C49.6943 12.2796 49.3355 10.4836 48.6385 8.80788C47.9414 7.13218 46.9197 5.60961 45.6317 4.3271C44.3437 3.04458 42.8147 2.02724 41.1318 1.33316C39.449 0.639074 37.6454 0.281841 35.8239 0.281857Z" fill="#260F0F"/>
<path d="M27.111 25.0588L23.4548 32.6357L23.71 32.7578L27.3661 25.1808L27.111 25.0588Z" fill="#260F0F"/>
<path d="M26.267 42.7196L26.1323 42.9675L42.2372 51.6464L42.3719 51.3985L26.267 42.7196Z" fill="#260F0F"/>
<path d="M26.3412 53.1321H5.67725V32.5557H26.3413L26.3412 53.1321ZM5.9603 52.8503H26.0582V32.8375H5.9603V52.8503Z" fill="#260F0F"/>
<path d="M56.9844 63.2792H35.6104L46.2975 44.8471L56.9844 63.2792ZM36.1004 62.9974H56.4943L46.2975 45.4108L36.1004 62.9974Z" fill="#260F0F"/>
<path d="M83.9453 35.8047C85.8995 35.8047 87.4837 34.2272 87.4837 32.2813C87.4837 30.3354 85.8995 28.7579 83.9453 28.7579C81.9912 28.7579 80.407 30.3354 80.407 32.2813C80.407 34.2272 81.9912 35.8047 83.9453 35.8047Z" fill="#ED9DA0"/>
<path d="M85.7853 34.1133C85.7853 34.1133 86.2099 38.3413 86.9176 39.0461C87.6253 39.7508 81.9639 38.6233 81.9639 38.6233C81.9639 38.6233 82.813 35.1002 82.2469 34.5362C81.6808 33.9723 85.7853 34.1133 85.7853 34.1133Z" fill="#ED9DA0"/>
<path d="M88.2622 41.2307C88.2622 41.2307 89.9606 46.0225 90.3852 48.982C90.8098 51.9415 90.8098 53.21 90.8098 53.21C90.8098 53.21 92.6497 58.8473 92.0836 61.525C92.0836 61.525 94.2066 67.867 92.3667 67.867C90.5267 67.867 89.9606 62.6524 89.9606 62.6524L87.1299 49.2638L88.2622 41.2307Z" fill="#ED9DA0"/>
<path d="M89.1114 43.4849C89.1114 43.4849 88.6869 38.2704 86.8469 37.8476C85.9687 37.6457 84.5417 37.3478 83.2904 37.091C81.1104 36.6441 78.8614 37.6739 77.871 39.6584C77.6852 40.0183 77.5616 40.4069 77.5057 40.8077C77.2226 43.0627 75.8072 43.0627 77.0811 46.0223C78.3549 48.982 78.0723 52.0824 78.0723 52.0824L78.9214 59.5519C78.9214 59.5519 75.3827 69.4173 75.6662 76.0412L72.4104 92.2485C72.4104 92.2485 73.118 93.9397 75.0995 93.0941C75.0995 93.0941 80.0532 84.779 79.6288 78.7188L84.724 67.4441C84.724 67.4441 88.2622 78.1551 89.2533 79.1416L91.801 94.3626C91.801 94.3626 94.2071 95.0673 95.3391 94.3626C95.3391 94.3626 95.7637 79.7055 93.3577 77.3093C93.3577 77.3093 90.9516 67.1621 91.5177 64.4843C92.0838 61.8065 92.2253 57.7194 87.9796 54.0551C87.9796 54.0551 88.5457 52.5048 86.7058 51.6593L88.1211 47.1492L89.1114 43.4849Z" fill="#260F0F"/>
<path d="M80.2344 37.4789C80.1962 37.4734 80.1571 37.4689 80.1173 37.4653C78.8642 37.3528 77.7852 38.349 77.7292 39.6008L77.5056 44.6126L76.6566 50.1096L74.8167 61.948C74.8167 61.948 71.2786 66.176 73.6844 66.4581C76.0902 66.7402 76.5151 61.8073 76.5151 61.8073L79.6289 52.5057L80.9027 43.9087C80.9027 43.9087 82.3885 42.4292 81.7701 39.0091C81.7072 38.626 81.5252 38.2723 81.2497 37.9978C80.9741 37.7232 80.619 37.5417 80.2344 37.4789Z" fill="#ED9DA0"/>
<path d="M72.1271 91.6848L71.136 96.7585C71.136 96.7585 68.7299 97.886 70.2868 99.2952C71.8437 100.704 73.9667 99.0134 73.9667 99.0134L74.5328 97.3222L74.3913 99.8589H74.8158L75.2404 97.3222C75.2404 97.3222 76.0896 95.7719 75.5235 94.5034V92.8123L72.1271 91.6848Z" fill="#260F0F"/>
<path d="M91.4467 92.1782L90.8806 96.829C90.8806 96.829 88.4746 97.9565 90.0314 99.3657C91.5881 100.775 93.7113 99.0839 93.7113 99.0839L94.2774 97.3927L94.1358 99.9294H94.5604L94.985 97.3927C94.985 97.3927 95.8341 95.8424 95.268 94.5739V92.8828L91.4467 92.1782Z" fill="#260F0F"/>
<path d="M85.7911 26.8355C85.5926 26.8358 85.3946 26.8554 85.2 26.8939C84.8483 26.7239 84.4626 26.6354 84.0717 26.6349H83.9693C81.9947 26.6349 80.3936 28.4141 80.3936 30.6088H81.0551L81.162 29.799L81.3187 30.6088H81.8699C81.6985 31.2586 81.6124 31.9279 81.614 32.5997V36.6445H82.6143L83.1934 35.1453L83.0486 36.6445H89.4782L90.0052 35.2827L89.8736 36.6445H90.5975V33.4687C90.5974 29.8052 88.4455 26.8355 85.7911 26.8355Z" fill="#260F0F"/>
<path d="M44.5945 7.60482C44.9044 7.96939 45.3035 8.24834 45.7531 8.41477C46.2028 8.5812 46.6879 8.62952 47.1617 8.55506C48.3779 8.34967 49.2947 7.37669 50.1138 6.45893L52.5384 3.74438L50.7317 3.87556C49.432 3.96989 48.0995 4.07233 46.9176 4.61767C45.7357 5.163 44.7162 6.25429 44.6455 7.55059" fill="#E6E6E6"/>
<path d="M42.5139 11.3903C42.9405 10.3689 43.3697 9.33336 44.0236 8.43147C44.6043 7.6304 45.3521 6.95351 46.282 6.58246C46.7748 6.38641 47.2982 6.27746 47.8287 6.26051C47.9667 6.25601 47.9667 6.46965 47.8287 6.47415C46.9102 6.50466 46.0251 6.82484 45.3011 7.38853C44.4981 8.01669 43.9225 8.87635 43.4674 9.77587C43.1923 10.3198 42.9566 10.8824 42.7222 11.4446C42.7138 11.4713 42.6956 11.4939 42.6713 11.5078C42.6469 11.5217 42.6181 11.5259 42.5908 11.5196C42.5635 11.512 42.5403 11.494 42.5262 11.4695C42.5122 11.445 42.5083 11.416 42.5155 11.3888L42.5139 11.3903Z" fill="#D9D1BA"/>
<path d="M10.9057 31.4858C10.2673 31.7093 9.58188 31.7653 8.91545 31.6484C8.24901 31.5315 7.62404 31.2457 7.10074 30.8185C5.76805 29.7045 5.35013 27.87 5.01024 26.1709L4.00464 21.1451L6.10994 22.5886C7.62405 23.6267 9.17217 24.6981 10.2204 26.2017C11.2687 27.7052 11.726 29.7579 10.884 31.3849" fill="#734636"/>
<path d="M10.5808 37.9204C10.8458 35.998 11.1184 34.0508 10.9321 32.1079C10.767 30.3823 10.2383 28.6972 9.1619 27.315C8.59057 26.5828 7.89536 25.9555 7.10754 25.4612C6.90215 25.3321 6.71307 25.6562 6.91758 25.7848C8.28077 26.6426 9.33516 27.9093 9.92874 29.4023C10.5843 31.0626 10.6896 32.8725 10.5766 34.6362C10.5084 35.7027 10.3634 36.7623 10.2177 37.8206C10.2062 37.8684 10.2134 37.9189 10.2378 37.9616C10.2622 38.0044 10.302 38.0364 10.3492 38.0511C10.3973 38.064 10.4486 38.0575 10.4919 38.033C10.5353 38.0085 10.5671 37.9679 10.5807 37.9201L10.5808 37.9204Z" fill="#D9D1BA"/>
<path d="M8.6734 34.8358C8.39964 35.2503 8.0233 35.5875 7.58063 35.8151C7.13796 36.0427 6.6439 36.1529 6.14603 36.1351C4.86629 36.0747 3.79984 35.1856 2.8399 34.3413L0 31.8445L1.87946 31.755C3.2311 31.6905 4.61762 31.63 5.90501 32.0456C7.19241 32.4611 8.37968 33.4596 8.61506 34.7865" fill="#734636"/>
<path d="M11.3297 39.0256C10.054 36.7779 8.57441 34.2799 5.93036 33.4814C5.19525 33.2602 4.42444 33.1809 3.65944 33.2479C3.4183 33.2687 3.47852 33.6387 3.71916 33.6181C5.00152 33.5121 6.2814 33.8492 7.34335 34.5728C8.36526 35.2655 9.16096 36.2284 9.83433 37.2495C10.2469 37.8751 10.6164 38.5271 10.9858 39.1782C11.1039 39.3863 11.4497 39.236 11.3297 39.0256Z" fill="#D9D1BA"/>
</g>
<defs>
<clipPath id="clip0_189_982">
<rect width="104" height="100" fill="white"/>
</clipPath>
</defs>
</svg>
