<svg width="297" height="100" viewBox="0 0 297 100" fill="none" xmlns="http://www.w3.org/2000/svg">
<g clip-path="url(#clip0_198_687)">
<path d="M163.134 94.1329L164.67 94.1284H166.836L169.575 49.6812L196.695 4.4669L195.516 3.20098V0L166.188 48.6334L163.134 94.1329Z" fill="#D9D1BA"/>
<path opacity="0.1" d="M164.834 94.1284H166.836L169.575 49.6812L196.696 4.46689L195.517 3.20282L167.542 49.0035L164.834 94.1284Z" fill="#260F0F"/>
<path d="M158.607 94.5034L228.881 99.8754L228.941 99.8798L296.95 95.7011L297.001 95.6981V92.8288L222.064 91.4564L159.546 91.3963H159.086L159.037 91.7182L158.607 94.5034Z" fill="#D9D1BA"/>
<path opacity="0.1" d="M158.607 94.5035L228.881 99.8754L228.941 99.8798L296.95 95.7011L297.001 95.6455V92.8889H296.941L228.881 95.16L159.543 91.3952H159.532L159.409 91.4757L159.035 91.7171L158.607 94.5035Z" fill="#260F0F"/>
<path d="M195.508 3.14163L226.489 36.3639L225.531 94.802L228.163 95.1195L228.206 95.1255H230.838L231.153 38.8735L289.165 58.2352L290.144 92.7067L292.26 92.9437L292.977 93.0242L291.317 55.8443L230.673 34.5713L197.422 0.0337524H195.508V3.14163Z" fill="#D9D1BA"/>
<path opacity="0.1" d="M230.914 37.7975L231.153 38.8732L289.165 58.2348L290.144 92.7064L292.26 92.9434L290.599 57.5179L230.914 37.7975Z" fill="#260F0F"/>
<path d="M231.027 61.2503L252.305 65.4365H252.312L289.578 72.7713L291.286 72.088L291.28 71.9679L291.169 69.5903L231.049 57.4548L231.027 61.2503Z" fill="#D9D1BA"/>
<path opacity="0.1" d="M252.312 65.4376L289.578 72.7724L291.286 72.0891L291.28 71.9693L252.312 65.4376Z" fill="#260F0F"/>
<path d="M253.737 46.4094L254.312 78.0631L254.609 94.3024L257.229 94.2145L258.878 94.1589L258.365 46.8674L257.229 46.4899L256.98 46.4094H253.737Z" fill="#D9D1BA"/>
<path opacity="0.1" d="M253.76 46.402V46.4094L254.312 78.0631L254.609 94.3024L257.229 94.2145V46.402H253.76Z" fill="#260F0F"/>
<path opacity="0.1" d="M182.918 51.4426C182.964 51.4426 182.995 51.4909 183.019 51.5305C183.138 51.7162 183.24 51.9121 183.325 52.1159C183.153 52.1529 182.859 52.1934 182.774 52.0417C182.729 51.9664 182.783 51.4352 182.918 51.4426Z" fill="#260F0F"/>
<path d="M225.708 82.8033V84.5648L195.52 90.4479L193.954 91.3955H188.55V90.403L218.21 83.2444L225.708 82.8033Z" fill="#D9D1BA"/>
<path opacity="0.1" d="M225.708 84.5645L195.52 90.4475L193.954 91.3952H188.55L218.43 85.0062L225.708 84.5645Z" fill="#260F0F"/>
<path opacity="0.2" d="M225.708 82.8033V84.5648L218.431 85.0066L218.211 83.2436L225.708 82.8033Z" fill="#260F0F"/>
<path d="M118.957 65.1627L188.098 65.1627V62.2358L118.957 62.2358V65.1627Z" fill="#D9D1BA"/>
<path d="M115.442 62.2358L184.582 62.2358V59.309L115.442 59.309V62.2358Z" fill="#D9D1BA"/>
<path d="M119.543 59.3086L188.684 59.3086V56.3817L119.543 56.3817V59.3086Z" fill="#D9D1BA"/>
<path d="M126.574 56.3817L195.715 56.3817V53.4548L126.574 53.4548V56.3817Z" fill="#D9D1BA"/>
<path d="M67.7465 57.5486H70.147V40.52H67.7465V57.5486Z" fill="#734636"/>
<path d="M67.739 40.3044L68.6418 42.5267L157.475 6.50259L156.572 4.28035L67.739 40.3044Z" fill="#734636"/>
<path d="M23.3357 82.9714H44.2207V74.8169H23.3357V82.9714Z" fill="#734636"/>
<path d="M25.2562 91.1259L128.24 91.1259V82.0122L25.2562 82.0122V91.1259Z" fill="#734636"/>
<path d="M42.1799 86.5688H66.9052V55.5097H48.4206L42.1799 71.1745V86.5688Z" fill="#D9D1BA"/>
<path d="M52.503 67.9817H63.0654V57.4288H52.503V67.9817Z" fill="#F2EDDC"/>
<path d="M44.5806 68.1011H51.3024V57.5486H48.4215L44.5806 68.1011Z" fill="#F2EDDC"/>
<path d="M60.1845 78.5345H62.585V73.9775H60.1845V78.5345Z" fill="#734636"/>
<path d="M49.2615 68.821H49.1416C48.5367 68.821 47.9566 68.581 47.5289 68.1537C47.1012 67.7264 46.861 67.1468 46.861 66.5425C46.861 65.9382 47.1012 65.3587 47.5289 64.9314C47.9566 64.5041 48.5367 64.264 49.1416 64.264H49.2615V68.821Z" fill="#734636"/>
<path d="M138.562 86.5688H138.443C137.838 86.5688 137.258 86.3288 136.83 85.9015C136.402 85.4742 136.162 84.8946 136.162 84.2903C136.162 83.686 136.402 83.1065 136.83 82.6792C137.258 82.2519 137.838 82.0118 138.443 82.0118H138.562V86.5688Z" fill="#734636"/>
<path d="M32.5779 81.9796C30.7927 82.0024 29.0355 82.427 27.4372 83.2219C25.8389 84.0168 24.4405 85.1614 23.346 86.5707H18.6545L23.2157 73.877L44.4605 69.6909L43.8602 86.5707H41.8094C40.715 85.1615 39.3166 84.0169 37.7184 83.222C36.1201 82.4271 34.3631 82.0025 32.5779 81.9796Z" fill="#D9D1BA"/>
<path d="M32.3378 100C38.105 100 42.7803 95.329 42.7803 89.567C42.7803 83.8049 38.105 79.1339 32.3378 79.1339C26.5705 79.1339 21.8953 83.8049 21.8953 89.567C21.8953 95.329 26.5705 100 32.3378 100Z" fill="#734636"/>
<path d="M32.3378 95.0579C35.3731 95.0579 37.8338 92.5995 37.8338 89.5669C37.8338 86.5343 35.3731 84.0759 32.3378 84.0759C29.3024 84.0759 26.8418 86.5343 26.8418 89.5669C26.8418 92.5995 29.3024 95.0579 32.3378 95.0579Z" fill="#D9D1BA"/>
<path d="M126.68 99.8798C131.718 99.8798 135.802 95.7995 135.802 90.7661C135.802 85.7327 131.718 81.6524 126.68 81.6524C121.642 81.6524 117.558 85.7327 117.558 90.7661C117.558 95.7995 121.642 99.8798 126.68 99.8798Z" fill="#734636"/>
<path d="M126.679 95.5628C129.331 95.5628 131.48 93.4152 131.48 90.7661C131.48 88.117 129.331 85.9695 126.679 85.9695C124.028 85.9695 121.878 88.117 121.878 90.7661C121.878 93.4152 124.028 95.5628 126.679 95.5628Z" fill="#D9D1BA"/>
<path d="M66.1858 87.5284H71.2271V51.1931H66.1858V87.5284Z" fill="#734636"/>
<path d="M66.1857 83.0916L138.683 83.0916V80.9328L66.1857 80.9328V83.0916Z" fill="#734636"/>
<path d="M47.8219 69.5402H50.2224V68.581H47.8219V69.5402Z" fill="#734636"/>
<path d="M153.926 65.146C153.904 65.1211 153.886 65.0917 153.876 65.0598C153.865 65.0278 153.862 64.994 153.865 64.9606L157.176 33.6811C157.182 33.6224 157.21 33.568 157.254 33.5284C157.298 33.4888 157.355 33.4667 157.414 33.4664C157.473 33.4664 157.529 33.4881 157.573 33.5273C157.617 33.5665 157.645 33.6204 157.652 33.6789L161.233 64.8935C161.237 64.9269 161.233 64.9607 161.223 64.9927C161.213 65.0248 161.196 65.0544 161.174 65.0795C161.152 65.1047 161.124 65.1249 161.094 65.1389C161.063 65.1528 161.03 65.1602 160.996 65.1605L154.105 65.2254H154.102C154.069 65.2251 154.036 65.218 154.006 65.2043C153.976 65.1906 153.948 65.1708 153.926 65.146ZM157.424 35.8955L154.371 64.7425L160.726 64.6828L157.424 35.8955Z" fill="#734636"/>
<path d="M23.26 74.0616L23.3721 74.1041C23.9377 74.318 24.395 74.7476 24.6435 75.2984C24.892 75.8492 24.9113 76.476 24.6972 77.0411C24.483 77.6061 24.053 78.063 23.5017 78.3113C22.9504 78.5595 22.323 78.5788 21.7575 78.3649L21.6454 78.3225L23.26 74.0616Z" fill="#734636"/>
<path d="M156.327 39.3209H158.727V4.30445H156.327V39.3209Z" fill="#734636"/>
<path d="M68.9469 44.3578C70.8031 44.3578 72.3078 42.8545 72.3078 41C72.3078 39.1455 70.8031 37.6421 68.9469 37.6421C67.0907 37.6421 65.5859 39.1455 65.5859 41C65.5859 42.8545 67.0907 44.3578 68.9469 44.3578Z" fill="#734636"/>
<path d="M73.8402 80.9688L142.981 80.9688V78.0419L73.8402 78.0419V80.9688Z" fill="#D9D1BA"/>
<path d="M77.9418 78.0416L147.082 78.0416V75.1147L77.9418 75.1147V78.0416Z" fill="#D9D1BA"/>
<path d="M75.0119 75.7L144.152 75.7V72.7731L75.0119 72.7731V75.7Z" fill="#D9D1BA"/>
<path d="M79.1139 72.7731L148.254 72.7731V69.8463L79.1139 69.8463V72.7731Z" fill="#D9D1BA"/>
<path d="M11.4583 98.2823H11.1428C11.1717 98.214 9.76913 94.6299 9.76913 94.6299L8.92713 92.5798L8.36209 91.2075L7.5201 89.1574L6.60348 86.9372C6.57801 86.832 6.51791 86.7385 6.43284 86.6717C6.34777 86.6048 6.24266 86.5684 6.13441 86.5684C6.02616 86.5684 5.92106 86.6048 5.83598 86.6717C5.75091 86.7385 5.69081 86.832 5.66534 86.9372L4.74871 89.1574L3.90672 91.2049L3.33648 92.5773L2.49448 94.6273C2.49448 94.6273 1.0971 98.2118 1.12606 98.2797H0.799727C0.58769 98.2797 0.384338 98.3638 0.234405 98.5136C0.0844725 98.6634 0.000244141 98.8666 0.000244141 99.0784C0.000244141 99.2903 0.0844725 99.4934 0.234405 99.6432C0.384338 99.793 0.58769 99.8772 0.799727 99.8772H11.4583C11.6704 99.8772 11.8737 99.793 12.0236 99.6432C12.1736 99.4934 12.2578 99.2903 12.2578 99.0784C12.2578 98.8666 12.1736 98.6634 12.0236 98.5136C11.8737 98.3638 11.6704 98.2797 11.4583 98.2797V98.2823Z" fill="#FF6584"/>
<path d="M8.36101 91.2082H3.90601L4.748 89.1582H7.51901L8.36101 91.2082Z" fill="#F2F2F2"/>
<path d="M9.7673 94.6302H2.49341L3.3354 92.5802H8.92531L9.7673 94.6302Z" fill="#F2F2F2"/>
<path d="M155.527 98.2823H155.212C155.241 98.214 153.838 94.6299 153.838 94.6299L152.996 92.5798L152.431 91.2075L151.589 89.1574L150.673 86.9372C150.647 86.832 150.587 86.7385 150.502 86.6717C150.417 86.6048 150.312 86.5684 150.203 86.5684C150.095 86.5684 149.99 86.6048 149.905 86.6717C149.82 86.7385 149.76 86.832 149.734 86.9372L148.818 89.1574L147.976 91.2049L147.406 92.5773L146.564 94.6273C146.564 94.6273 145.166 98.2118 145.195 98.2797H144.869C144.657 98.2797 144.453 98.3638 144.303 98.5136C144.154 98.6634 144.069 98.8666 144.069 99.0784C144.069 99.2903 144.154 99.4934 144.303 99.6432C144.453 99.793 144.657 99.8772 144.869 99.8772H155.527C155.739 99.8772 155.943 99.793 156.093 99.6432C156.243 99.4934 156.327 99.2903 156.327 99.0784C156.327 98.8666 156.243 98.6634 156.093 98.5136C155.943 98.3638 155.739 98.2797 155.527 98.2797V98.2823Z" fill="#FF6584"/>
<path d="M152.43 91.2082H147.975L148.817 89.1582H151.588L152.43 91.2082Z" fill="#F2F2F2"/>
<path d="M153.836 94.6302H146.562L147.404 92.5802H152.994L153.836 94.6302Z" fill="#F2F2F2"/>
</g>
<defs>
<clipPath id="clip0_198_687">
<rect width="297" height="100" fill="white"/>
</clipPath>
</defs>
</svg>
