<svg width="155" height="100" viewBox="0 0 155 100" fill="none" xmlns="http://www.w3.org/2000/svg">
<g clip-path="url(#clip0_189_1008)">
<path d="M138.276 95.7291L140.825 95.7962C141.538 94.6624 141.964 93.3715 142.065 92.0356C140.432 93.7682 137.551 93.3329 135.442 94.4365C134.786 94.7858 134.218 95.2781 133.779 95.8769C133.34 96.4758 133.041 97.1658 132.904 97.896L131.853 99.3683C133.015 99.6629 134.227 99.702 135.405 99.483C136.584 99.2639 137.701 98.7919 138.679 98.0994C139.224 97.7055 139.717 97.2445 140.147 96.7272C139.202 96.2897 138.276 95.7291 138.276 95.7291Z" fill="#F2EDDC"/>
<path d="M136.872 91.8466L139.184 90.7694C139.316 89.4363 139.122 88.091 138.617 86.8502C137.928 89.1296 135.155 90.0254 133.759 91.9544C133.328 92.5594 133.039 93.2536 132.913 93.9856C132.787 94.7175 132.827 95.4686 133.03 96.183L132.746 97.9696C133.917 97.7149 135.019 97.2093 135.976 96.4874C136.933 95.7656 137.723 94.8447 138.29 93.7883C138.602 93.1925 138.838 92.5598 138.992 91.905C137.951 91.9352 136.872 91.8466 136.872 91.8466Z" fill="#F2EDDC"/>
<path d="M133.079 98.0446H131.516L130.772 92.0118H133.079L133.079 98.0446Z" fill="#A0616A"/>
<path d="M133.037 97.5335L131.369 96.8556L131.32 96.8354L130.399 97.5335C129.894 97.5334 129.408 97.7286 129.043 98.0783C128.677 98.4281 128.461 98.9054 128.44 99.4106C128.437 99.4384 128.437 99.4674 128.437 99.4964V99.5608H133.478V97.5335L133.037 97.5335Z" fill="#734636"/>
<path d="M130.102 94.9247L128.755 95.7179L125.055 90.8958L127.044 89.7252L130.102 94.9247Z" fill="#A0616A"/>
<path d="M131.032 95.7195L130.849 95.4077L130.187 94.2817L129.842 94.4849L129.807 94.5051L128.026 94.7677L127.973 94.7753L127.533 95.8445C127.311 95.9752 127.117 96.1483 126.962 96.3541C126.807 96.5599 126.693 96.7943 126.629 97.0439C126.564 97.2935 126.549 97.5534 126.585 97.8087C126.621 98.064 126.706 98.3098 126.837 98.532L126.87 98.5863L131.214 96.0288L131.032 95.7195Z" fill="#734636"/>
<path d="M135.059 61.1636C135.792 63.3753 135.714 65.7759 134.883 68.3525L134.666 77.2097L133.969 82.7968C134.389 83.8915 134.605 85.0543 134.605 86.227C134.602 89.3011 134.395 93.6684 133.348 95.7199H130.869L130.309 86.5838L129.642 81.9904L129.559 77.068L129.488 72.775L126.792 76.7181L124.173 80.5497L126.776 84.9428L129.048 92.012L126.65 94.0317L123.931 88.8733L122.613 87.3412L119.015 79.5486L119.338 78.4637C120.004 76.2292 120.971 74.096 122.213 72.1229L125.791 63.8127L135.059 61.1636Z" fill="#734636"/>
<path d="M93.7728 62.8163H44.5833C44.1907 62.8158 43.8144 62.6596 43.5369 62.3819C43.2593 62.1043 43.1032 61.7278 43.1028 61.3351V23.7168C43.1032 23.3241 43.2594 22.9476 43.5369 22.6699C43.8144 22.3923 44.1908 22.2361 44.5833 22.2357H93.7728C94.1653 22.2361 94.5416 22.3923 94.8191 22.6699C95.0967 22.9476 95.2528 23.3241 95.2532 23.7168V61.3351C95.2528 61.7278 95.0967 62.1043 94.8191 62.3819C94.5416 62.6596 94.1653 62.8158 93.7728 62.8163Z" fill="#260F0F"/>
<path d="M93.7726 62.9999H44.5832C44.142 62.9993 43.7191 62.8238 43.4071 62.5117C43.0952 62.1996 42.9197 61.7764 42.9192 61.3351V23.7167C42.9197 23.2753 43.0952 22.8522 43.4071 22.5401C43.7191 22.228 44.142 22.0525 44.5832 22.052H93.7726C94.2138 22.0525 94.6367 22.228 94.9487 22.5401C95.2607 22.8522 95.4361 23.2753 95.4367 23.7167V61.3351C95.4361 61.7764 95.2607 62.1996 94.9487 62.5117C94.6368 62.8238 94.2138 62.9994 93.7726 62.9999ZM44.5832 22.4192C44.2394 22.4196 43.9097 22.5564 43.6666 22.7997C43.4234 23.0429 43.2867 23.3727 43.2863 23.7167V61.3351C43.2866 61.6791 43.4234 62.0089 43.6666 62.2521C43.9097 62.4954 44.2393 62.6322 44.5832 62.6326H93.7726C94.1165 62.6322 94.4461 62.4954 94.6893 62.2521C94.9324 62.0089 95.0692 61.6791 95.0696 61.3351V23.7167C95.0692 23.3727 94.9324 23.0429 94.6893 22.7997C94.4461 22.5564 94.1165 22.4196 93.7726 22.4192H44.5832Z" fill="#F2EDDC"/>
<path d="M43.2163 55.655V61.3351C43.2168 61.6976 43.361 62.0451 43.6172 62.3015C43.8735 62.5578 44.2208 62.702 44.5831 62.7026H93.7727C94.135 62.702 94.4824 62.5578 94.7386 62.3015C94.9948 62.0451 95.139 61.6976 95.1395 61.3351V55.655H43.2163Z" fill="#F2EDDC"/>
<path d="M43.6798 22.4753L43.4819 22.7845L95.0405 55.8095L95.2384 55.5003L43.6798 22.4753Z" fill="#F2EDDC"/>
<path d="M128.083 6.71187H12.0287C11.98 6.7108 11.9337 6.69069 11.8996 6.65584C11.8655 6.62099 11.8464 6.57418 11.8464 6.52543C11.8464 6.47668 11.8655 6.42987 11.8996 6.39502C11.9337 6.36017 11.98 6.34006 12.0287 6.33899H128.083C128.132 6.34006 128.178 6.36017 128.212 6.39502C128.246 6.42987 128.265 6.47668 128.265 6.52543C128.265 6.57418 128.246 6.62099 128.212 6.65584C128.178 6.69069 128.132 6.7108 128.083 6.71187Z" fill="#F2EDDC"/>
<path d="M16.1317 4.10169C17.2391 4.10169 18.1369 3.1835 18.1369 2.05085C18.1369 0.918195 17.2391 0 16.1317 0C15.0242 0 14.1265 0.918195 14.1265 2.05085C14.1265 3.1835 15.0242 4.10169 16.1317 4.10169Z" fill="#D9D1BA"/>
<path d="M23.0587 4.10169C24.1661 4.10169 25.0639 3.1835 25.0639 2.05085C25.0639 0.918195 24.1661 0 23.0587 0C21.9512 0 21.0535 0.918195 21.0535 2.05085C21.0535 3.1835 21.9512 4.10169 23.0587 4.10169Z" fill="#D9D1BA"/>
<path d="M29.9857 4.10169C31.0931 4.10169 31.9909 3.1835 31.9909 2.05085C31.9909 0.918195 31.0931 0 29.9857 0C28.8782 0 27.9805 0.918195 27.9805 2.05085C27.9805 3.1835 28.8782 4.10169 29.9857 4.10169Z" fill="#D9D1BA"/>
<path d="M123.932 0.508301H119.011C118.913 0.510238 118.821 0.550362 118.752 0.620056C118.684 0.68975 118.646 0.783456 118.646 0.881055C118.646 0.978653 118.684 1.07236 118.752 1.14205C118.821 1.21175 118.913 1.25187 119.011 1.25381H123.932C124.029 1.25187 124.122 1.21175 124.19 1.14205C124.259 1.07236 124.297 0.978653 124.297 0.881055C124.297 0.783456 124.259 0.68975 124.19 0.620056C124.122 0.550362 124.029 0.510238 123.932 0.508301Z" fill="#D9D1BA"/>
<path d="M123.932 1.90753H119.011C118.913 1.90947 118.821 1.94959 118.752 2.01929C118.684 2.08898 118.646 2.18269 118.646 2.28029C118.646 2.37788 118.684 2.47159 118.752 2.54128C118.821 2.61098 118.913 2.6511 119.011 2.65304H123.932C124.029 2.6511 124.122 2.61098 124.19 2.54128C124.259 2.47159 124.297 2.37788 124.297 2.28029C124.297 2.18269 124.259 2.08898 124.19 2.01929C124.122 1.94959 124.029 1.90947 123.932 1.90753Z" fill="#D9D1BA"/>
<path d="M123.932 3.30487H119.011C118.913 3.30681 118.821 3.34693 118.752 3.41663C118.684 3.48632 118.646 3.58003 118.646 3.67762C118.646 3.77522 118.684 3.86893 118.752 3.93862C118.821 4.00832 118.913 4.04844 119.011 4.05038H123.932C124.029 4.04844 124.122 4.00832 124.19 3.93862C124.259 3.86893 124.297 3.77522 124.297 3.67762C124.297 3.58003 124.259 3.48632 124.19 3.41663C124.122 3.34693 124.029 3.30681 123.932 3.30487Z" fill="#D9D1BA"/>
<path d="M110.445 50.5489C110.553 50.6903 110.69 50.8064 110.847 50.8891C111.004 50.9717 111.178 51.0189 111.355 51.0273C111.532 51.0356 111.709 51.005 111.874 50.9375C112.038 50.87 112.185 50.7673 112.306 50.6366L116.264 52.3589L115.878 50.1483L112.179 48.8517C111.946 48.6641 111.652 48.5685 111.354 48.5829C111.055 48.5973 110.772 48.7209 110.558 48.9301C110.345 49.1393 110.215 49.4196 110.194 49.718C110.174 50.0163 110.263 50.312 110.445 50.5489Z" fill="#A0616A"/>
<path d="M114.047 49.3L121.608 50.2804L129.405 45.5811C129.822 45.3298 130.288 45.1697 130.771 45.1113C131.254 45.053 131.745 45.0977 132.209 45.2426C132.674 45.3874 133.103 45.6291 133.468 45.9517C133.832 46.2743 134.125 46.6706 134.325 47.1144C134.687 47.9176 134.729 48.8288 134.441 49.6615C134.153 50.4942 133.558 51.1853 132.778 51.5934L122.3 55.329L122.28 55.336L113.087 51.2391L114.047 49.3Z" fill="#D9D1BA"/>
<path d="M125.089 62.5009L125.717 60.9289L125.301 59.5774L126.533 46.1066L126.715 44.065L126.727 42.5431L130.939 42.4404L131.395 43.6007L132.299 44.1414C133.284 44.7326 134.097 45.573 134.654 46.5781C135.212 47.5832 135.495 48.7175 135.476 49.8668L135.312 58.7029L135.733 59.5439C135.847 59.7723 135.91 60.0226 135.919 60.2778C135.927 60.533 135.88 60.787 135.781 61.0224C135.682 61.2577 135.533 61.4688 135.345 61.6412C135.157 61.8136 134.933 61.9431 134.69 62.021L125.432 64.8361L125.089 62.5009Z" fill="#D9D1BA"/>
<path d="M128.447 40.9974C130.561 40.9974 132.274 39.2835 132.274 37.1691C132.274 35.0548 130.561 33.3408 128.447 33.3408C126.334 33.3408 124.621 35.0548 124.621 37.1691C124.621 39.2835 126.334 40.9974 128.447 40.9974Z" fill="#A0616A"/>
<path d="M132.432 38.0037C132.546 37.5227 132.493 36.8457 132.429 36.3614C132.346 35.7227 132.131 35.1085 131.796 34.5587C131.46 34.0088 131.014 33.5354 130.484 33.1693C130.281 33.0151 130.04 32.9191 129.786 32.8919C129.66 32.8812 129.533 32.9109 129.424 32.9768C129.315 33.0426 129.23 33.1412 129.181 33.2584C129.117 33.0991 129.021 32.9545 128.899 32.8336C128.777 32.7127 128.632 32.6181 128.472 32.5556C128.151 32.4326 127.806 32.386 127.464 32.4197C126.801 32.4744 126.165 32.7077 125.623 33.0948C125.082 33.4819 124.656 34.0085 124.389 34.6185C124.287 34.8614 124.002 33.9642 123.872 34.1937C123.753 34.4323 123.545 34.6148 123.294 34.7021C123.04 34.773 122.937 35.8189 122.837 35.575C122.759 35.7552 122.729 35.9522 122.748 36.1474C122.767 36.3427 122.835 36.53 122.946 36.6918C123.057 36.8536 123.207 36.9847 123.382 37.0729C123.557 37.1611 123.752 37.2035 123.948 37.1962C124.204 37.163 124.458 37.1144 124.708 37.0506C125.168 36.9926 125.633 37.105 126.015 37.3665C126.398 37.6281 126.671 38.0206 126.784 38.4701C126.854 38.2087 126.965 37.9604 127.114 37.7346C127.19 37.6223 127.291 37.5297 127.41 37.4645C127.529 37.3993 127.661 37.3634 127.796 37.3597C127.926 37.3745 128.051 37.4157 128.164 37.4806C128.276 37.5455 128.375 37.6328 128.453 37.7371C128.621 37.935 128.748 38.1659 128.917 38.3627C129.415 38.9403 130.089 40.2871 130.799 40.1889C131.359 40.1114 132.276 38.6605 132.432 38.0037Z" fill="#734636"/>
<path d="M139.687 69.4445C139.786 69.297 139.851 69.1295 139.878 68.9539C139.905 68.7784 139.894 68.599 139.844 68.4284C139.794 68.2579 139.708 68.1003 139.591 67.9667C139.474 67.8332 139.329 67.727 139.166 67.6556L139.51 63.3511L137.545 64.4332L137.52 68.3549C137.418 68.6361 137.423 68.9449 137.533 69.2228C137.644 69.5007 137.852 69.7284 138.12 69.8627C138.387 69.997 138.694 70.0286 138.983 69.9515C139.271 69.8745 139.522 69.6941 139.687 69.4445Z" fill="#A0616A"/>
<path d="M137.338 66.4418L135.811 58.9682L128.838 53.1138C128.465 52.8007 128.163 52.4122 127.951 51.9737C127.739 51.5353 127.622 51.0569 127.608 50.57C127.594 50.0832 127.684 49.5989 127.87 49.1491C128.057 48.6993 128.337 48.2942 128.691 47.9603C129.333 47.3572 130.181 47.0225 131.062 47.0246C131.943 47.0267 132.789 47.3656 133.428 47.9718L140.36 56.6754L140.373 56.6918L139.482 66.721L137.338 66.4418Z" fill="#D9D1BA"/>
<path d="M154.781 100H90.913C90.8843 100 90.8558 99.9945 90.8292 99.9836C90.8026 99.9726 90.7784 99.9565 90.7581 99.9362C90.7377 99.9159 90.7216 99.8918 90.7106 99.8652C90.6995 99.8386 90.6938 99.8101 90.6938 99.7814C90.6938 99.7526 90.6995 99.7241 90.7106 99.6976C90.7216 99.671 90.7377 99.6469 90.7581 99.6265C90.7784 99.6062 90.8026 99.5901 90.8292 99.5792C90.8558 99.5682 90.8843 99.5627 90.913 99.5627H154.781C154.81 99.5627 154.839 99.5682 154.865 99.5792C154.892 99.5901 154.916 99.6062 154.936 99.6265C154.957 99.6469 154.973 99.671 154.984 99.6976C154.995 99.7241 155.001 99.7526 155.001 99.7814C155.001 99.8101 154.995 99.8386 154.984 99.8652C154.973 99.8918 154.957 99.9159 154.936 99.9362C154.916 99.9565 154.892 99.9726 154.865 99.9836C154.839 99.9945 154.81 100 154.781 100Z" fill="#F2EDDC"/>
<path d="M113.506 64.4427H84.4814C84.2791 64.4425 84.0852 64.362 83.9422 64.2189C83.7992 64.0758 83.7187 63.8818 83.7185 63.6795V51.8971C83.7187 51.6948 83.7992 51.5007 83.9422 51.3577C84.0852 51.2146 84.2791 51.1341 84.4814 51.1339H113.506C113.708 51.1341 113.902 51.2146 114.045 51.3577C114.188 51.5007 114.268 51.6947 114.269 51.8971V63.6795C114.268 63.8818 114.188 64.0758 114.045 64.2189C113.902 64.362 113.708 64.4425 113.506 64.4427Z" fill="#D9D1BA"/>
<path d="M110.742 70.0948H87.2449C87.1246 70.095 87.0054 70.0714 86.8942 70.0254C86.7829 69.9795 86.6819 69.9121 86.5967 69.827C86.5116 69.7419 86.444 69.6409 86.3979 69.5297C86.3518 69.4185 86.3281 69.2993 86.3281 69.1789C86.3281 69.0585 86.3518 68.9393 86.3979 68.8281C86.444 68.7169 86.5116 68.6159 86.5967 68.5308C86.6819 68.4457 86.7829 68.3783 86.8942 68.3323C87.0054 68.2864 87.1246 68.2628 87.2449 68.263H110.742C111.923 68.2465 111.934 70.1114 110.742 70.0948Z" fill="#F2EDDC"/>
<path d="M110.742 74.2927H87.2451C87.0023 74.2927 86.7694 74.1962 86.5977 74.0244C86.426 73.8526 86.3296 73.6197 86.3296 73.3768C86.3296 73.1339 86.426 72.9009 86.5977 72.7291C86.7694 72.5574 87.0023 72.4609 87.2451 72.4609H110.742C111.923 72.4444 111.934 74.3093 110.742 74.2927Z" fill="#F2EDDC"/>
<path d="M110.742 78.4905H87.2449C87.1246 78.4907 87.0054 78.4671 86.8942 78.4212C86.7829 78.3752 86.6819 78.3078 86.5967 78.2227C86.5116 78.1377 86.444 78.0366 86.3979 77.9254C86.3518 77.8142 86.3281 77.695 86.3281 77.5746C86.3281 77.4542 86.3518 77.335 86.3979 77.2238C86.444 77.1126 86.5116 77.0116 86.5967 76.9265C86.6819 76.8415 86.7829 76.774 86.8942 76.7281C87.0054 76.6821 87.1246 76.6586 87.2449 76.6587H110.742C111.923 76.6423 111.934 78.5072 110.742 78.4905Z" fill="#F2EDDC"/>
<path d="M38.3403 85.2727L40.7706 84.5014C41.0735 83.1965 41.0534 81.8373 40.7121 80.5419C39.7357 82.7139 36.8712 83.246 35.239 84.9796C34.7341 85.5242 34.3582 86.1755 34.1391 86.8852C33.9199 87.5949 33.8633 88.3449 33.9732 89.0795L33.4619 90.8148C34.6561 90.7127 35.814 90.3529 36.8558 89.76C37.8976 89.1671 38.7985 88.3553 39.4965 87.3805C39.8827 86.8297 40.198 86.2326 40.435 85.603C39.3986 85.4992 38.3403 85.2727 38.3403 85.2727Z" fill="#F2EDDC"/>
<path d="M35.7436 82.0638L37.575 80.2891C37.2644 78.986 36.6405 77.7784 35.7575 76.7712C35.8518 79.1509 33.5252 80.9054 32.8371 83.1852C32.628 83.898 32.5818 84.6486 32.7021 85.3816C32.8223 86.1146 33.1059 86.8112 33.5318 87.4196L33.8477 89.2009C34.871 88.5767 35.747 87.738 36.4151 86.7425C37.0833 85.747 37.5278 84.6184 37.718 83.4345C37.8181 82.7692 37.8341 82.094 37.7656 81.4248C36.7917 81.7944 35.7436 82.0638 35.7436 82.0638Z" fill="#F2EDDC"/>
<path d="M40.6398 49.0212C40.4397 49.048 40.2362 49.0306 40.0436 48.9702C39.851 48.9099 39.6739 48.808 39.5249 48.6717C39.3759 48.5355 39.2586 48.3682 39.1812 48.1817C39.1038 47.9952 39.0682 47.794 39.0769 47.5922L30.2495 38.6313L32.7138 36.9149L40.616 46.2629C40.9538 46.3001 41.2662 46.4599 41.4941 46.7121C41.722 46.9644 41.8495 47.2915 41.8524 47.6315C41.8554 47.9715 41.7335 48.3007 41.51 48.5568C41.2865 48.813 40.9769 48.9782 40.6398 49.0212Z" fill="#FFB7B7"/>
<path d="M27.5338 34.7553C27.5338 34.7553 26.9082 35.1304 27.9495 36.2729C28.7831 37.1875 32.4209 41.5848 33.873 42.5029C33.7146 42.9603 37.7312 47.3399 38.1535 47.6191L40.386 44.8318C40.2585 44.0327 35.8657 40.2174 35.5631 40.3145L34.1625 38.5726L30.9888 33.2468L27.9812 34.4761L27.5338 34.7553Z" fill="#D9D1BA"/>
<path d="M20.5624 88.1485H22.2266L23.0185 81.7264H20.5623L20.5624 88.1485Z" fill="#FFB7B7"/>
<path d="M20.0193 87.0081L22.6781 86.8493V87.989L25.2059 89.7356C25.3307 89.8218 25.4247 89.9457 25.4742 90.0892C25.5237 90.2327 25.526 90.3883 25.4809 90.5332C25.4357 90.6781 25.3454 90.8048 25.2232 90.8948C25.101 90.9847 24.9533 91.0333 24.8015 91.0332H21.6362L21.0906 89.9059L20.8775 91.0332H19.6841L20.0193 87.0081Z" fill="#734636"/>
<path d="M29.9104 88.1485H31.5745L32.3665 81.7264H29.9104V88.1485Z" fill="#FFB7B7"/>
<path d="M29.3672 87.0081L32.026 86.8493V87.989L34.5538 89.7356C34.6786 89.8218 34.7726 89.9457 34.8221 90.0892C34.8716 90.2327 34.8739 90.3883 34.8288 90.5332C34.7836 90.6781 34.6933 90.8048 34.5711 90.8948C34.4489 90.9847 34.3011 91.0333 34.1494 91.0332H30.9841L30.4385 89.9059L30.2254 91.0332H29.032L29.3672 87.0081Z" fill="#734636"/>
<path d="M19.8444 82.6103H19.8625L20.1826 72.1682C19.9755 71.7685 19.8703 71.3238 19.8766 70.8736C19.8828 70.4234 20.0003 69.9818 20.2184 69.588L20.2642 69.505L20.1454 68.954C19.9928 68.2461 20.0628 67.5083 20.3459 66.8417L20.6444 57.1012C19.5777 50.1848 24.6614 45.6741 24.6614 45.6741L23.7324 41.7643L32.9297 40.8592L32.2768 45.6741L33.9117 51.294C34.9925 61.8291 34.7964 72.0954 33.0813 82.0416L33.128 82.0652C33.2964 82.1234 33.3686 82.3567 33.2894 82.5864C33.2101 82.8162 33.0094 82.9552 32.841 82.8971L28.8192 82.7572C28.6509 82.699 28.5786 82.4657 28.6579 82.236C28.7371 82.0062 28.9379 81.8672 29.1062 81.9253L29.3797 82.0637L28.7965 71.9875L28.8612 70.147L28.7279 68.059L28.1114 58.6672L25.778 70.2164L23.3945 82.7265C23.4603 82.7861 23.5064 82.8642 23.5269 82.9505C23.5473 83.0369 23.5411 83.1274 23.5091 83.2101C23.4771 83.2928 23.4207 83.3639 23.3475 83.4139C23.2743 83.464 23.1876 83.4906 23.0989 83.4903H19.8444C19.7279 83.4901 19.6163 83.4436 19.534 83.3611C19.4517 83.2787 19.4055 83.1669 19.4055 83.0503C19.4055 82.9338 19.4517 82.822 19.534 82.7395C19.6163 82.657 19.7279 82.6105 19.8444 82.6103Z" fill="#734636"/>
<path d="M31.1382 31.9282L29.3295 30.8425L25.712 30.4805L22.5146 32.1094L22.5467 37.0855L24.5751 42.2466L32.4772 43.8761L33.3991 39.3404C33.3991 39.3404 35.7505 36.1807 33.2182 34.3712L31.1382 31.9282Z" fill="#D9D1BA"/>
<path d="M23.3959 53.4133C23.224 53.3074 23.0774 53.1651 22.9665 52.9964C22.8555 52.8277 22.7829 52.6367 22.7537 52.4369C22.7245 52.237 22.7395 52.0332 22.7975 51.8398C22.8556 51.6464 22.9553 51.4681 23.0897 51.3174L21.9233 38.7901L24.9171 39.0214L25.1222 51.2626C25.3603 51.5053 25.5011 51.8269 25.518 52.1664C25.5349 52.506 25.4267 52.84 25.2139 53.1051C25.0011 53.3702 24.6985 53.548 24.3634 53.6048C24.0283 53.6616 23.6841 53.5935 23.3959 53.4133Z" fill="#FFB7B7"/>
<path d="M22.6257 32.1594C22.6257 32.1594 21.904 32.0537 21.9876 33.5976C22.0545 34.8335 21.7364 42.4517 22.2799 44.082C21.868 44.3359 21.846 50.5363 21.9964 51.0199L25.4881 50.2753C25.8948 49.5758 25.627 43.1653 25.3314 43.0489L25.3488 40.8133L26.1205 33.4444L23.1487 32.2265L22.6257 32.1594Z" fill="#D9D1BA"/>
<path d="M40.4713 54.5724C40.3778 54.4582 40.3109 54.3247 40.2754 54.1814C40.24 54.0381 40.2369 53.8888 40.2663 53.7441C40.6117 52.0247 40.6117 50.2536 40.2663 48.5341C40.2369 48.3895 40.24 48.2401 40.2754 48.0969C40.3109 47.9536 40.3778 47.82 40.4713 47.7059C40.561 47.5961 40.6736 47.5074 40.8012 47.4458C40.9288 47.3842 41.0684 47.3513 41.21 47.3495C42.7312 46.743 44.1879 46.7429 45.5406 47.3495C45.7742 47.3537 45.9987 47.4409 46.1738 47.5957C46.3488 47.7505 46.463 47.9627 46.4958 48.1941C46.7613 50.1485 46.7613 52.1298 46.4958 54.0842C46.4626 54.3185 46.3461 54.5329 46.1676 54.688C45.9891 54.8432 45.7606 54.9287 45.5241 54.9289H41.2248C41.0806 54.9292 40.9382 54.8974 40.8079 54.8357C40.6775 54.774 40.5626 54.6841 40.4713 54.5724Z" fill="#D9D1BA"/>
<path d="M41.6749 49.5952H45.2935C45.3534 49.595 45.4107 49.5711 45.453 49.5287C45.4953 49.4863 45.519 49.4288 45.519 49.3689C45.519 49.309 45.4953 49.2516 45.453 49.2091C45.4107 49.1667 45.3534 49.1428 45.2935 49.1426H41.6749C41.6149 49.1426 41.5574 49.1665 41.515 49.2089C41.4726 49.2513 41.4487 49.3089 41.4487 49.3689C41.4487 49.4289 41.4726 49.4865 41.515 49.5289C41.5574 49.5713 41.6149 49.5952 41.6749 49.5952Z" fill="#260F0F"/>
<path d="M41.675 51.4053H45.2936C45.3535 51.4051 45.4108 51.3812 45.4531 51.3388C45.4954 51.2964 45.5191 51.2389 45.5191 51.179C45.5191 51.1191 45.4954 51.0617 45.4531 51.0193C45.4108 50.9768 45.3535 50.9529 45.2936 50.9528H41.675C41.6151 50.9529 41.5578 50.9768 41.5155 51.0193C41.4732 51.0617 41.4495 51.1191 41.4495 51.179C41.4495 51.2389 41.4732 51.2964 41.5155 51.3388C41.5578 51.3812 41.6151 51.4051 41.675 51.4053Z" fill="#260F0F"/>
<path d="M41.6749 53.2155H45.2935C45.3535 53.2155 45.411 53.1916 45.4534 53.1492C45.4958 53.1068 45.5197 53.0492 45.5197 52.9892C45.5197 52.9292 45.4958 52.8716 45.4534 52.8292C45.411 52.7868 45.3535 52.7629 45.2935 52.7629H41.6749C41.6149 52.7629 41.5574 52.7868 41.515 52.8292C41.4726 52.8716 41.4487 52.9292 41.4487 52.9892C41.4487 53.0492 41.4726 53.1068 41.515 53.1492C41.5574 53.1916 41.6149 53.2155 41.6749 53.2155Z" fill="#260F0F"/>
<path d="M51.8801 90.9676C51.8802 90.9963 51.8746 91.0248 51.8637 91.0513C51.8527 91.0779 51.8367 91.102 51.8164 91.1223C51.7961 91.1426 51.7719 91.1587 51.7454 91.1697C51.7189 91.1806 51.6904 91.1862 51.6617 91.1861H0.218408C0.160483 91.1861 0.104929 91.1631 0.0639699 91.1221C0.0230105 91.0811 0 91.0255 0 90.9676C0 90.9096 0.0230105 90.8541 0.0639699 90.8131C0.104929 90.7721 0.160483 90.7491 0.218408 90.7491H51.6617C51.6904 90.749 51.7189 90.7546 51.7454 90.7655C51.7719 90.7765 51.796 90.7926 51.8163 90.8129C51.8366 90.8332 51.8527 90.8573 51.8637 90.8839C51.8746 90.9104 51.8802 90.9389 51.8801 90.9676Z" fill="#F2EDDC"/>
<path d="M30.9112 28.6307V25.2591C30.912 24.6656 30.7958 24.0777 30.5694 23.5291C30.343 22.9805 30.0108 22.4819 29.5917 22.0618C29.1726 21.6417 28.6749 21.3084 28.127 21.0808C27.579 20.8532 26.9917 20.7359 26.3984 20.7355C25.8052 20.7352 25.2177 20.8517 24.6695 21.0786C24.1213 21.3055 23.6231 21.6382 23.2035 22.0577C22.7839 22.4773 22.451 22.9755 22.2239 23.5238C21.9967 24.0721 21.8798 24.6598 21.8798 25.2533V25.2591C21.0839 26.9184 21.5819 27.7073 21.8798 28.6307C21.8801 28.7915 21.9441 28.9456 22.0577 29.0593C22.1714 29.173 22.3254 29.237 22.4862 29.2373H30.3046C30.4654 29.2371 30.6195 29.1731 30.7332 29.0594C30.8469 28.9457 30.911 28.7915 30.9112 28.6307Z" fill="#734636"/>
<path d="M27.876 29.0182C29.7428 29.0182 31.2562 27.5041 31.2562 25.6364C31.2562 23.7687 29.7428 22.2546 27.876 22.2546C26.0092 22.2546 24.4958 23.7687 24.4958 25.6364C24.4958 27.5041 26.0092 29.0182 27.876 29.0182Z" fill="#FFB7B7"/>
<path d="M24.3387 26.523C24.3693 26.5181 24.3999 26.5117 24.4306 26.5068C24.9578 26.4133 25.4851 26.3213 26.0107 26.2261L26.0591 25.034L26.696 26.1019C28.1488 26.5842 29.508 26.3116 30.7866 25.7099C31.2084 25.5096 31.6176 25.2839 32.0121 25.034C31.9047 24.3747 31.6513 23.7477 31.2705 23.199C30.8897 22.6503 30.3911 22.1936 29.8111 21.8625C29.7628 21.8351 29.716 21.8109 29.6676 21.7867L29.667 21.7866L29.6665 21.7862L29.6661 21.7857L29.666 21.7851C29.5838 21.7464 29.5 21.7093 29.4161 21.6754C28.7597 21.4187 28.044 21.3538 27.3521 21.488C26.6602 21.6222 26.0206 21.9501 25.5077 22.4336C24.4757 23.4192 24.0114 25.0469 24.3387 26.523Z" fill="#734636"/>
</g>
<defs>
<clipPath id="clip0_189_1008">
<rect width="155" height="100" fill="white"/>
</clipPath>
</defs>
</svg>
